<?xml version="1.0" encoding="utf-8"?>
<!-- Generator: Adobe Illustrator 16.0.4, SVG Export Plug-In . SVG Version: 6.00 Build 0)  -->
<!DOCTYPE svg PUBLIC "-//W3C//DTD SVG 1.1//EN" "http://www.w3.org/Graphics/SVG/1.1/DTD/svg11.dtd">
<svg version="1.1" id="Layer_1" xmlns="http://www.w3.org/2000/svg" xmlns:xlink="http://www.w3.org/1999/xlink" x="0px" y="0px"
	 width="299.5px" height="299.5px" viewBox="-1 0 299.5 299.5" enable-background="new -1 0 299.5 299.5" xml:space="preserve">
<circle cx="84.787" cy="33.793" r="31.793"/>
<polygon points="209.912,92.25 209.912,79.942 175.041,79.942 175.041,156.348 155.553,156.348 155.553,168.657 175.041,168.657 
	175.041,245.062 209.912,245.062 209.912,232.754 187.35,232.754 187.35,168.657 209.912,168.657 209.912,156.348 187.35,156.348 
	187.35,92.25 "/>
<rect x="228.373" y="65.586" width="45.125" height="45.125"/>
<path d="M273.5,163.016c0,12.469-10.098,22.562-22.562,22.562c-12.472,0-22.562-10.098-22.562-22.562
	c0-12.464,10.097-22.562,22.562-22.562C263.402,140.453,273.5,150.551,273.5,163.016z"/>
<polygon points="228.373,262.496 273.5,262.496 250.936,222.5 "/>
<path d="M141.1,95.376c-0.654-3.894-6.377-17.485-54.519-17.485c-32.482,0-45.607,6.186-50.952,11.426
	c-0.382,0.353-0.71,0.723-1.057,1.124c-0.705,0.816-1.193,1.587-1.563,2.31c-0.337,0.626-0.584,1.265-0.811,1.955
	c-0.096,0.37-0.16,0.689-0.189,0.96c-0.217,0.913-0.554,1.762-0.554,2.741v73.847c0,6.794,5.511,12.305,12.306,12.305
	c3.734,0,6.972-1.763,9.23-4.392v99.258c0,9.072,7.348,16.41,16.41,16.41c7.261,0,13.221-4.791,15.383-11.328
	c2.162,6.537,8.125,11.328,15.383,11.328c9.062,0,16.41-7.342,16.41-16.41V172.25c0,6.793,5.515,12.305,12.308,12.305
	c6.795,0,12.305-5.512,12.305-12.305V99.686l0.008-4.358L141.1,95.376z"/>
<text transform="matrix(1 0 0 1 4.0312 344.6191)" font-family="'HelveticaNeue-Bold'" font-size="15.0578">Created by Aneeque Ahmed</text>
<text transform="matrix(1 0 0 1 4.0312 359.6758)" font-family="'HelveticaNeue-Bold'" font-size="15.0578">from the Noun Project</text>
</svg>
