<?xml version="1.0" encoding="utf-8"?>
<!-- Generator: Adobe Illustrator 23.0.2, SVG Export Plug-In . SVG Version: 6.00 Build 0)  -->
<svg version="1.1" id="Layer_1" xmlns="http://www.w3.org/2000/svg" xmlns:xlink="http://www.w3.org/1999/xlink" x="0px" y="0px"
	 viewBox="0 0 196 203" style="enable-background:new 0 0 196 203;" xml:space="preserve">
<style type="text/css">
	.st0{fill:#333333;}
	.st1{fill:#666766;}
	.st2{enable-background:new    ;}
</style>
<path d="M46.2,184H17c-6.6,0-12-5.4-12-12V34c0-6.6,5.4-12,12-12h29.2c6.6,0,12,5.4,12,12v138C58.2,178.6,52.8,184,46.2,184z"/>
<path d="M112.4,184H83.2c-6.6,0-12-5.4-12-12V86c0-6.6,5.4-12,12-12h29.2c6.6,0,12,5.4,12,12v86C124.4,178.6,119,184,112.4,184z"/>
<path class="st0" d="M244.9,184h-29.2c-6.6,0-12-5.4-12-12V86c0-6.6,5.4-12,12-12h29.2c6.6,0,12,5.4,12,12v86
	C256.9,178.6,251.5,184,244.9,184z"/>
<path class="st0" d="M178.6,184h-29.2c-6.6,0-12-5.4-12-12V34c0-6.6,5.4-12,12-12h29.2c6.6,0,12,5.4,12,12v138
	C190.6,178.6,185.2,184,178.6,184z"/>
<path class="st1" d="M377.3,184h-29.2c-6.6,0-12-5.4-12-12V86c0-6.6,5.4-12,12-12h29.2c6.6,0,12,5.4,12,12v86
	C389.3,178.6,383.9,184,377.3,184z"/>
<path class="st1" d="M311.1,184h-29.2c-6.6,0-12-5.4-12-12V34c0-6.6,5.4-12,12-12h29.2c6.6,0,12,5.4,12,12v138
	C323.1,178.6,317.7,184,311.1,184z"/>
<g class="st2">
	<path d="M497.4,185.2c-9.1,0-17.8-1.8-26.1-5.4c-8.3-3.6-15.7-8.7-22.2-15.5c-6.4-6.7-11.5-15-15.2-24.7
		c-3.8-9.7-5.7-20.7-5.7-32.8c0-12.2,1.9-23.2,5.6-33.2c3.7-9.9,8.9-18.5,15.5-25.6c6.5-7.1,14.2-12.6,23.1-16.4
		c8.9-3.9,18.4-5.8,28.4-5.8c7.5,0,14.3,0.9,20.4,2.8s11.9,4.5,17.4,7.8l4.4-7.3h8.6l1,54.4h-8.8c-1.1-5.3-2.9-11-5.2-17.2
		s-5-11.4-8-15.7c-3.4-4.9-7.5-8.7-12.2-11.4c-4.7-2.8-10.1-4.1-16.2-4.1c-6.9,0-13.4,1.5-19.4,4.6s-11.1,7.6-15.5,13.7
		c-4.1,5.8-7.4,13.2-9.8,22.1c-2.4,9-3.5,19-3.5,30c0,9.7,1.2,18.7,3.7,26.8c2.5,8.1,6,15.3,10.6,21.4c4.6,6.1,10,10.9,16.3,14.3
		c6.3,3.4,13.3,5.2,21,5.2c5.8,0,11.1-0.9,16-2.7s9.1-4.2,12.7-7.3c3.6-3.2,6.7-6.7,9.4-10.7s4.9-8.4,6.7-13.1l8.1,3.9
		c-6.2,15.1-14.3,25.9-24.5,32.4C523.5,182,511.4,185.2,497.4,185.2z"/>
	<path d="M669.1,179.7c-3.4,1.2-6.3,2.2-8.9,3c-2.5,0.8-5.4,1.1-8.6,1.1c-5.6,0-10-1.3-13.4-3.9s-5.5-6.4-6.4-11.4h-0.6
		c-4.7,5.2-9.7,9.1-15,11.8s-11.8,4.1-19.3,4.1c-7.9,0-14.5-2.4-19.6-7.3c-5.1-4.9-7.7-11.2-7.7-19.1c0-4.1,0.6-7.7,1.7-11
		c1.1-3.2,2.9-6.1,5.2-8.7c1.8-2.1,4.2-4.1,7.1-5.7c2.9-1.7,5.7-3,8.3-4c3.2-1.2,9.8-3.5,19.6-6.8s16.5-5.9,19.9-7.7v-10.6
		c0-0.9-0.2-2.7-0.6-5.4c-0.4-2.6-1.2-5.2-2.5-7.5c-1.4-2.6-3.5-5-6.1-6.9c-2.6-2-6.3-3-11.1-3c-3.3,0-6.4,0.6-9.2,1.7
		s-4.8,2.3-6,3.5c0,1.4,0.3,3.5,1,6.3s1,5.4,1,7.7c0,2.5-1.1,4.8-3.4,6.9c-2.3,2.1-5.4,3.1-9.4,3.1c-3.6,0-6.2-1.3-7.9-3.8
		s-2.5-5.4-2.5-8.5c0-3.3,1.2-6.4,3.5-9.5c2.3-3,5.4-5.7,9.1-8.1c3.2-2,7.1-3.7,11.7-5.1c4.6-1.4,9.1-2.1,13.4-2.1
		c6,0,11.3,0.4,15.7,1.2c4.5,0.8,8.5,2.6,12.2,5.3c3.7,2.7,6.4,6.2,8.3,10.8c1.9,4.5,2.8,10.4,2.8,17.6c0,10.2-0.1,19.3-0.3,27.2
		c-0.2,7.9-0.3,16.6-0.3,25.9c0,2.8,0.5,5,1.5,6.7c1,1.6,2.5,3,4.5,4.2c1.1,0.6,2.8,1,5.1,1.1s4.7,0.1,7.1,0.1v6.8H669.1z
		 M631.6,122.9c-6.1,1.8-11.4,3.6-16,5.3s-8.8,3.9-12.8,6.5c-3.6,2.4-6.4,5.3-8.5,8.7c-2.1,3.3-3.1,7.3-3.1,11.9
		c0,6,1.6,10.3,4.7,13.1c3.1,2.8,7.1,4.2,11.9,4.2c5.1,0,9.6-1.2,13.4-3.7c3.9-2.5,7.1-5.4,9.8-8.8L631.6,122.9z"/>
	<path d="M795.6,179.7l-37.1,2.4l-1.6-1.5v-9.9l-0.9-0.2c-3.7,4.2-8.3,7.6-13.8,10.2c-5.5,2.6-11.1,4-16.9,4c-6,0-11.8-1.3-17.4-4
		s-10.5-6.5-14.6-11.3c-4.2-4.9-7.6-10.9-10-17.8c-2.5-6.9-3.7-14.6-3.7-23c0-7.7,1.3-14.9,4-21.8c2.6-6.9,6.3-12.9,10.9-18
		c4.4-4.8,9.7-8.6,16-11.5s12.8-4.3,19.4-4.3c4.9,0,9.8,0.6,14.5,1.9c4.8,1.3,8.8,2.8,12.3,4.8V42.5c0-3-0.5-5.8-1.5-8.2
		c-1-2.5-2.4-4.4-4.2-5.7c-2-1.4-4.7-2.3-8.1-3c-3.4-0.6-7.1-1.1-11-1.3v-6.7l43.4-2.4l1.6,1.6v142.8c0,2.5,0.5,4.6,1.5,6.4
		c1,1.8,2.4,3.2,4.2,4.5c1.4,0.9,3.3,1.4,5.9,1.6s4.9,0.4,7.1,0.4L795.6,179.7L795.6,179.7z M756.7,161.1v-62
		c-0.6-1.9-1.5-3.9-2.8-6s-2.9-4.1-4.8-5.9c-2.1-1.8-4.5-3.3-7.3-4.5s-6-1.8-9.8-1.8c-4.3,0-8.2,1.1-11.8,3.3
		c-3.6,2.2-6.8,5.4-9.6,9.6c-2.6,4-4.7,9.1-6.3,15.3c-1.5,6.2-2.3,13.1-2.3,20.6c0,6,0.6,11.5,1.7,16.4c1.1,4.9,3.1,9.5,5.8,13.7
		c2.5,4,5.7,7.2,9.6,9.7c3.9,2.4,8.5,3.7,13.9,3.7c5.7,0,10.5-1.3,14.2-3.8C751,166.8,754.2,164.1,756.7,161.1z"/>
	<path d="M900,156.7c-4.4,8.5-10.4,15.2-17.8,20.2c-7.4,5-16,7.5-25.7,7.5c-8.5,0-16-1.5-22.4-4.5s-11.7-7.1-15.8-12.2
		c-4.2-5.2-7.3-11.2-9.3-18s-3.1-14.1-3.1-21.8c0-6.9,1.1-13.6,3.3-20.2s5.4-12.6,9.6-17.9c4.1-5.1,9.1-9.2,15.2-12.3
		c6.1-3.1,12.8-4.7,20.4-4.7c7.7,0,14.4,1.2,19.9,3.7c5.5,2.4,10,5.8,13.4,10c3.3,4,5.7,8.7,7.4,14.2c1.6,5.4,2.4,11.4,2.4,17.7v7.1
		h-70.1c0,7,0.7,13.3,2,19c1.3,5.7,3.4,10.7,6.3,15c2.8,4.2,6.4,7.4,11,9.9c4.5,2.4,9.9,3.6,16.1,3.6c6.4,0,11.9-1.5,16.5-4.5
		s9.1-8.4,13.4-16.1L900,156.7z M876.3,116.3c0-4-0.3-8.3-1-12.9s-1.8-8.4-3.3-11.5c-1.6-3.3-3.9-6-6.8-8c-2.9-2.1-6.6-3.1-11.1-3.1
		c-7.5,0-13.8,3.1-18.7,9.4c-5,6.2-7.7,14.9-8.1,26.1H876.3z"/>
	<path d="M1029.3,181.6h-51.8v-7.1c1.6-0.1,3.5-0.3,5.4-0.4c2-0.1,3.6-0.4,4.9-0.9c2-0.6,3.5-1.8,4.5-3.4s1.5-3.7,1.5-6.3V109
		c0-7.5-1.8-13.3-5.3-17.4c-3.6-4.1-7.9-6.1-13-6.1c-3.8,0-7.3,0.6-10.4,1.8c-3.2,1.2-6,2.6-8.4,4.4c-2.4,1.6-4.3,3.4-5.7,5.3
		s-2.4,3.4-3.1,4.6v60.9c0,2.4,0.5,4.4,1.5,6s2.5,2.8,4.5,3.7c1.5,0.7,3.1,1.3,4.9,1.6c1.8,0.4,3.6,0.6,5.4,0.8v7.1h-51.9v-7.1
		c1.6-0.1,3.3-0.3,5.1-0.4c1.8-0.1,3.3-0.4,4.6-0.9c2-0.6,3.5-1.8,4.5-3.4s1.5-3.7,1.5-6.3V98.2c0-2.4-0.5-4.7-1.6-6.7
		c-1-2-2.5-3.7-4.4-5c-1.4-0.9-3-1.5-4.8-1.9c-1.9-0.4-3.9-0.7-6-0.8v-7.1l35.2-2.4l1.5,1.5v14.9h0.5c1.7-1.7,3.9-3.8,6.4-6.2
		c2.6-2.4,5-4.4,7.3-5.9c2.6-1.7,5.8-3.2,9.5-4.3c3.7-1.1,7.8-1.7,12.4-1.7c10.2,0,17.7,3.2,22.6,9.5c4.9,6.3,7.4,14.8,7.4,25.3
		v55.1c0,2.5,0.4,4.5,1.3,6.1c0.9,1.5,2.3,2.7,4.4,3.6c1.7,0.7,3.2,1.2,4.5,1.5s3,0.5,5.2,0.6v7.3H1029.3z"/>
	<path d="M1091.3,184.4c-15.3,0-27.3-5.1-36-15.3s-13-23.8-13-40.9c0-7.4,1.2-14.4,3.5-20.9s5.7-12.4,10.2-17.7
		c4.2-5.1,9.5-9.2,15.9-12.3c6.4-3.1,13.3-4.7,20.8-4.7c10.4,0,18.8,2.5,25.4,7.5c6.5,5,9.8,11.8,9.8,20.4c0,3.6-0.9,6.8-2.6,9.5
		c-1.7,2.8-4.5,4.1-8.5,4.1c-4.2,0-7.5-1.1-9.8-3.2s-3.5-4.5-3.5-7.2c0-3.2,0.4-6.5,1.3-9.9s1.4-5.9,1.5-7.4
		c-1.3-2.2-3.2-3.7-5.7-4.4c-2.5-0.7-5.3-1.1-8.2-1.1c-3.4,0-6.7,0.7-9.8,2.2c-3.1,1.5-6.1,4.2-9.1,8.1c-2.6,3.6-4.8,8.4-6.4,14.5
		s-2.5,13.4-2.5,21.8c0,13.3,2.9,24.2,8.8,32.6c5.9,8.4,13.6,12.6,23.2,12.6c6.9,0,12.7-1.7,17.4-5.1c4.7-3.4,9-8.5,13-15.2l6.9,4.5
		c-4.7,8.5-11,15.1-18.7,20.1S1099.5,184.4,1091.3,184.4z"/>
	<path d="M1236.3,156.7c-4.4,8.5-10.4,15.2-17.8,20.2s-16,7.5-25.7,7.5c-8.5,0-16-1.5-22.4-4.5s-11.7-7.1-15.8-12.2
		c-4.2-5.2-7.3-11.2-9.3-18s-3.1-14.1-3.1-21.8c0-6.9,1.1-13.6,3.3-20.2c2.2-6.6,5.4-12.6,9.6-17.9c4.1-5.1,9.1-9.2,15.2-12.3
		c6.1-3.1,12.8-4.7,20.4-4.7c7.7,0,14.4,1.2,19.9,3.7c5.5,2.4,10,5.8,13.4,10c3.3,4,5.7,8.7,7.4,14.2c1.6,5.4,2.4,11.4,2.4,17.7v7.1
		h-70.1c0,7,0.7,13.3,2,19c1.3,5.7,3.4,10.7,6.3,15c2.8,4.2,6.4,7.4,11,9.9c4.5,2.4,9.9,3.6,16.1,3.6c6.4,0,11.9-1.5,16.5-4.5
		s9.1-8.4,13.4-16.1L1236.3,156.7z M1212.5,116.3c0-4-0.3-8.3-1-12.9s-1.8-8.4-3.3-11.5c-1.6-3.3-3.9-6-6.8-8
		c-2.9-2.1-6.6-3.1-11.1-3.1c-7.5,0-13.8,3.1-18.7,9.4c-5,6.2-7.7,14.9-8.1,26.1H1212.5z"/>
</g>
</svg>
