<?xml version="1.0" encoding="utf-8"?>
<!-- Generator: Adobe Illustrator 16.0.4, SVG Export Plug-In . SVG Version: 6.00 Build 0)  -->
<!DOCTYPE svg PUBLIC "-//W3C//DTD SVG 1.1//EN" "http://www.w3.org/Graphics/SVG/1.1/DTD/svg11.dtd">
<svg version="1.1" id="Layer_1" xmlns="http://www.w3.org/2000/svg" xmlns:xlink="http://www.w3.org/1999/xlink" x="0px" y="0px"
	 width="243px" height="243px" viewBox="94.5 16.5 243 243" enable-background="new 94.5 16.5 243 243" xml:space="preserve">
<path d="M183.041,136.78c0.176,4.819,1.806,18.763,14.405,26.892c4.374,2.867,8.933,3.996,13.062,3.996
	c2.68,0,5.181-0.476,7.334-1.257c1.246-0.395,2.414-0.599,3.553-0.599c2.579,0,5.018,1.036,7.896,3.203l83.997,83.997
	c2.654,2.654,6.135,3.981,9.615,3.981s6.958-1.327,9.615-3.981c5.309-5.309,5.309-13.919,0-19.228l-84.095-84.095
	c0.002-0.003,0.002-0.005,0.002-0.011c-2.789-3.682-3.362-6.432-2.231-11.864c1.741-7.958,1.741-17.654-7.96-26.356
	c-1.025-0.857-3.108-2.182-4.312-3.086c-5.012-2.94-10.848-4.631-17.077-4.631c-5.673,0-11.015,1.402-15.71,3.872l-0.692,1.112
	c0,0,13.925,9.195,15.663,10.192c1.991,1.246,7.952,7.958,0.739,18.651c-3.774,5.799-7.767,7.428-10.989,7.428
	c-2.719,0-4.89-1.162-5.917-1.957c-1.741-0.997-15.663-9.948-15.663-9.948l-1.143,1.831
	C183.088,135.534,183.055,136.156,183.041,136.78z M317.742,238.238c1.426-1.426,3.293-2.14,5.161-2.14s3.735,0.714,5.163,2.14
	c2.851,2.85,2.851,7.473,0,10.323c-1.426,1.425-3.293,2.14-5.163,2.14c-1.868,0-3.735-0.715-5.163-2.14
	C314.893,245.711,314.893,241.088,317.742,238.238z M257.445,211.837c-6.275,3.741-13.09,6.849-20.328,8.954l-2.982,21.319
	c-0.549,3.92-3.889,6.877-7.789,6.991l-10.559,0.314l-10.56,0.312c-0.618,0.021-1.224-0.039-1.806-0.153
	c-3.405-0.45-6.172-3.001-6.863-6.442l-4.113-20.754c-7.977-1.768-15.528-4.635-22.557-8.442l-17.13,12.983
	c-3.167,2.381-7.554,2.129-10.394-0.545l-7.641-7.199l-7.641-7.199c-2.528-2.38-3.206-6.098-1.787-9.215
	c0.193-0.453,0.429-0.896,0.708-1.321l11.721-17.53c-3.2-5.11-5.98-10.604-8.145-16.409c-0.706-1.876-1.347-3.783-1.918-5.72
	l-21.305-2.979c-3.035-0.425-5.485-2.525-6.493-5.261c-0.361-0.876-0.574-1.826-0.602-2.812l-0.313-10.559l-0.314-10.559
	c-0.118-3.996,2.635-7.409,6.516-8.193l20.729-4.141c1.755-8.145,4.667-15.848,8.548-23.01L121.44,77.14
	c-2.38-3.167-2.131-7.555,0.546-10.394l7.199-7.642l7.199-7.641c0.843-0.896,1.854-1.557,2.945-1.979
	c2.475-1.14,5.455-0.988,7.868,0.607l17.66,11.769c6.653-4.122,13.943-7.538,21.719-9.8l2.982-21.319
	c0.532-3.789,3.668-6.667,7.398-6.964c0.316-0.064,0.635-0.115,0.96-0.143l10.559-0.313l10.56-0.313
	c3.995-0.121,7.408,2.635,8.191,6.516l4.147,20.918c1.621,0.37,3.223,0.787,4.808,1.241c6.426,1.789,12.514,4.312,18.209,7.501
	l17.037-12.886c3.167-2.38,7.555-2.128,10.395,0.546l7.641,7.199l7.641,7.199c2.843,2.677,3.352,7.042,1.166,10.343l-11.848,17.777
	c0.355,0.557,0.691,1.126,1.033,1.691l0,0c0,0,0,0.003,0.003,0.003c0.468,0.775,0.921,1.56,1.364,2.349
	c0.03,0.053,0.059,0.106,0.089,0.16c0.417,0.748,0.82,1.5,1.216,2.259c0.059,0.112,0.114,0.224,0.173,0.336
	c0.364,0.711,0.723,1.428,1.067,2.15c0.086,0.182,0.17,0.364,0.258,0.543c0.312,0.667,0.618,1.333,0.915,2.007
	c0.118,0.266,0.229,0.532,0.342,0.798c0.257,0.604,0.515,1.212,0.761,1.823c0.148,0.373,0.292,0.748,0.435,1.123
	c0.202,0.524,0.406,1.044,0.599,1.574c0.193,0.532,0.376,1.072,0.561,1.61c0.132,0.389,0.271,0.773,0.4,1.162
	c0.309,0.946,0.605,1.898,0.885,2.859l21.129,2.893c2.128,0.297,3.965,1.422,5.225,3.007c0.037,0.045,0.073,0.087,0.109,0.132
	c0.037,0.047,0.07,0.098,0.106,0.146c0.921,1.238,1.515,2.722,1.641,4.309l0.313,10.559l0.314,10.559
	c0.039,1.305-0.232,2.542-0.745,3.651c-1.028,2.386-3.173,4.191-5.86,4.732l-20.875,4.138c-1.623,7.079-4.059,13.815-7.287,20.157
	l-22.784-22.783c0.213-0.708,0.42-1.417,0.607-2.137c0.03-0.112,0.062-0.224,0.09-0.339c0.075-0.297,0.146-0.593,0.218-0.893
	c0.037-0.154,0.076-0.308,0.109-0.462c0.064-0.277,0.123-0.557,0.186-0.837c0.039-0.176,0.075-0.355,0.111-0.532
	c0.054-0.266,0.107-0.532,0.157-0.798c0.036-0.193,0.073-0.389,0.108-0.582c0.049-0.258,0.09-0.515,0.133-0.773
	c0.033-0.207,0.066-0.415,0.1-0.622c0.04-0.249,0.076-0.499,0.113-0.748c0.03-0.221,0.061-0.439,0.089-0.661
	c0.03-0.241,0.062-0.484,0.09-0.728c0.028-0.23,0.05-0.462,0.075-0.694c0.025-0.235,0.048-0.471,0.07-0.708
	c0.022-0.241,0.042-0.484,0.062-0.728c0.02-0.229,0.036-0.457,0.054-0.686c0.016-0.255,0.03-0.513,0.045-0.767
	c0.011-0.219,0.024-0.437,0.033-0.658c0.012-0.274,0.02-0.552,0.027-0.826c0.006-0.205,0.015-0.406,0.018-0.611
	c0.006-0.311,0.006-0.622,0.008-0.932c0-0.171,0.003-0.342,0.003-0.513c-0.003-0.47-0.011-0.943-0.024-1.414
	c0-0.011,0-0.025,0-0.037c-0.015-0.484-0.037-0.969-0.062-1.45c-0.008-0.166-0.021-0.328-0.031-0.49
	c-0.02-0.316-0.039-0.633-0.063-0.949c-0.017-0.199-0.036-0.397-0.054-0.596c-0.025-0.277-0.051-0.555-0.078-0.829
	c-0.022-0.218-0.047-0.434-0.072-0.649c-0.028-0.255-0.06-0.51-0.09-0.765c-0.028-0.227-0.062-0.456-0.093-0.683
	c-0.034-0.241-0.067-0.479-0.104-0.717c-0.036-0.238-0.075-0.473-0.114-0.708c-0.037-0.224-0.076-0.451-0.115-0.675
	c-0.045-0.246-0.09-0.493-0.137-0.736c-0.04-0.21-0.082-0.42-0.124-0.63c-0.05-0.255-0.104-0.51-0.159-0.764
	c-0.042-0.196-0.087-0.39-0.132-0.585c-0.062-0.266-0.12-0.529-0.185-0.792c-0.042-0.176-0.087-0.353-0.132-0.529
	c-0.069-0.277-0.14-0.557-0.216-0.832c-0.041-0.154-0.084-0.305-0.125-0.459c-0.082-0.297-0.166-0.594-0.253-0.891
	c-0.033-0.115-0.069-0.229-0.104-0.344c-0.098-0.331-0.198-0.658-0.302-0.985c-0.015-0.04-0.025-0.076-0.039-0.115
	c-0.535-1.655-1.141-3.279-1.812-4.866c-6.358-14.975-18.776-26.687-34.096-32.158c-1.57-0.56-3.172-1.053-4.799-1.481
	c-0.115-0.031-0.227-0.062-0.342-0.09c-0.294-0.075-0.591-0.146-0.888-0.218c-0.153-0.036-0.311-0.076-0.464-0.112
	c-0.277-0.064-0.555-0.124-0.835-0.182c-0.179-0.039-0.356-0.079-0.535-0.115c-0.263-0.053-0.528-0.106-0.795-0.157
	c-0.196-0.037-0.39-0.073-0.585-0.109c-0.255-0.045-0.513-0.089-0.771-0.131c-0.207-0.034-0.417-0.067-0.624-0.101
	c-0.246-0.039-0.496-0.076-0.745-0.109c-0.222-0.031-0.442-0.062-0.663-0.089c-0.241-0.031-0.482-0.062-0.726-0.089
	c-0.232-0.028-0.465-0.053-0.697-0.076c-0.235-0.025-0.47-0.048-0.706-0.07c-0.243-0.022-0.486-0.042-0.73-0.062
	c-0.227-0.017-0.456-0.036-0.684-0.053c-0.257-0.017-0.515-0.031-0.771-0.045c-0.219-0.011-0.435-0.025-0.653-0.033
	c-0.276-0.011-0.554-0.02-0.834-0.028c-0.202-0.005-0.4-0.014-0.603-0.017c-0.313-0.006-0.63-0.006-0.946-0.008
	c-0.165,0-0.333-0.003-0.498-0.003c-0.481,0.003-0.966,0.011-1.453,0.025l0,0c-9.56,0.286-18.511,2.853-26.351,7.168
	c-0.412,0.227-0.824,0.459-1.229,0.694c-0.812,0.473-1.612,0.966-2.399,1.476c-1.574,1.022-3.094,2.117-4.559,3.282
	c-1.464,1.165-2.867,2.396-4.211,3.69c-0.672,0.646-1.327,1.31-1.968,1.991c-0.639,0.68-1.263,1.372-1.871,2.083
	c-0.302,0.355-0.602,0.711-0.896,1.075c-8.551,10.489-13.513,23.988-13.079,38.576s6.191,27.768,15.353,37.728
	c0.316,0.344,0.635,0.683,0.96,1.019c0.646,0.673,1.31,1.327,1.991,1.969c0.68,0.638,1.375,1.263,2.083,1.87
	c1.417,1.213,2.895,2.36,4.423,3.436c1.529,1.075,3.114,2.078,4.746,3.002c0.815,0.462,1.645,0.907,2.484,1.33
	c0.42,0.213,0.843,0.42,1.268,0.621c8.082,3.839,17.173,5.872,26.732,5.586c0.484-0.014,0.969-0.036,1.45-0.062
	c0.168-0.009,0.336-0.022,0.504-0.033c0.313-0.02,0.624-0.04,0.938-0.064c0.201-0.017,0.402-0.036,0.604-0.054
	c0.274-0.025,0.549-0.047,0.82-0.075c0.218-0.022,0.437-0.048,0.655-0.073c0.255-0.027,0.507-0.059,0.759-0.09
	c0.229-0.027,0.459-0.061,0.687-0.092c0.237-0.033,0.476-0.066,0.713-0.104c0.238-0.036,0.477-0.076,0.715-0.115
	c0.224-0.036,0.447-0.075,0.669-0.114c0.247-0.045,0.495-0.09,0.742-0.138c0.21-0.039,0.417-0.081,0.624-0.123
	c0.258-0.053,0.513-0.104,0.768-0.159c0.193-0.042,0.387-0.087,0.58-0.129c0.266-0.062,0.531-0.123,0.797-0.188
	c0.177-0.042,0.351-0.087,0.523-0.132c0.281-0.07,0.561-0.141,0.838-0.215c0.151-0.043,0.303-0.084,0.453-0.127
	c0.3-0.084,0.6-0.165,0.896-0.252c0.111-0.033,0.225-0.066,0.336-0.101c0.333-0.101,0.664-0.202,0.994-0.306
	c0.033-0.011,0.066-0.021,0.104-0.033c1.663-0.535,3.293-1.143,4.886-1.82c0.21-0.09,0.417-0.185,0.624-0.273L257.445,211.837z"/>
<text transform="matrix(1 0 0 1 73.5654 322)" font-family="'HelveticaNeue-Bold'" font-size="14">Created by Gregor Črešnar</text>
<text transform="matrix(1 0 0 1 73.5654 336)" font-family="'HelveticaNeue-Bold'" font-size="14">from the Noun Project</text>
</svg>
