<?xml version="1.0" encoding="utf-8"?>
<!-- Generator: Adobe Illustrator 16.0.4, SVG Export Plug-In . SVG Version: 6.00 Build 0)  -->
<!DOCTYPE svg PUBLIC "-//W3C//DTD SVG 1.1//EN" "http://www.w3.org/Graphics/SVG/1.1/DTD/svg11.dtd">
<svg version="1.1" id="Layer_1" xmlns="http://www.w3.org/2000/svg" xmlns:xlink="http://www.w3.org/1999/xlink" x="0px" y="0px"
	 width="283.5px" height="283.5px" viewBox="0 0 283.5 283.5" enable-background="new 0 0 283.5 283.5" xml:space="preserve">
<g>
	<path d="M139,1C79.99,1,16.5,18.789,16.5,57.875v166.25C16.5,263.193,79.99,281,139,281c59.002,0,122.5-17.807,122.5-56.875V57.875
		C261.5,18.789,197.992,1,139,1z M244,224.125c0,21.734-47.014,39.375-105,39.375c-57.995,0-105-17.641-105-39.375v-32.689
		c18.078,18.629,61.688,28.314,105,28.314s86.922-9.686,105-28.314V224.125z M244,171.625h-0.035c0,0.087,0.035,0.184,0.035,0.271
		C244,193.5,196.986,211,139,211S34,193.5,34,171.896c0-0.088,0.035-0.184,0.035-0.271H34v-32.69
		c18.078,18.629,61.688,28.315,105,28.315s86.922-9.686,105-28.315V171.625z M244,119.125h-0.035c0,0.087,0.035,0.184,0.035,0.271
		C244,141,196.986,158.5,139,158.5S34,141,34,119.396c0-0.088,0.035-0.184,0.035-0.271H34V89.06
		c22.934,17.474,64.969,25.69,105,25.69s82.066-8.216,105-25.69V119.125z M139,97.25c-57.995,0-105-17.64-105-39.375
		C34,36.123,81.005,18.5,139,18.5c57.986,0,105,17.623,105,39.375C244,79.61,196.986,97.25,139,97.25z"/>
	<circle cx="217.75" cy="228.5" r="8.75"/>
	<circle cx="217.75" cy="176" r="8.75"/>
	<circle cx="217.75" cy="123.5" r="8.75"/>
</g>
<text transform="matrix(1 0 0 1 -1 412.25)" font-family="'HelveticaNeue-Bold'" font-size="43.75">Created by Shmidt Sergey</text>
<text transform="matrix(1 0 0 1 -1 456)" font-family="'HelveticaNeue-Bold'" font-size="43.75">from the Noun Project</text>
</svg>
