<?xml version="1.0" encoding="utf-8"?>
<!-- Generator: Adobe Illustrator 16.0.4, SVG Export Plug-In . SVG Version: 6.00 Build 0)  -->
<!DOCTYPE svg PUBLIC "-//W3C//DTD SVG 1.1//EN" "http://www.w3.org/Graphics/SVG/1.1/DTD/svg11.dtd">
<svg version="1.1" id="Layer_1" xmlns="http://www.w3.org/2000/svg" xmlns:xlink="http://www.w3.org/1999/xlink" x="0px" y="0px"
	 width="730px" height="730px" viewBox="146.5 45.5 730 730" enable-background="new 146.5 45.5 730 730" xml:space="preserve">
<title>finite-icons</title>
<path d="M512,51.2c-197.938,0-358.4,160.461-358.4,358.399C153.6,607.539,314.062,768,512,768s358.4-160.461,358.4-358.4
	C870.169,211.757,709.843,51.431,512,51.2z M512,665.6c-141.385,0-256-114.614-256-256c0-141.385,114.615-256,256-256
	s256,114.615,256,256C767.834,550.916,653.316,665.434,512,665.6z"/>
<path d="M486.4,204.8H537.6c14.139,0,25.601,11.462,25.601,25.6v204.8c0,14.139-11.462,25.6-25.601,25.6H486.4
	c-14.139,0-25.601-11.461-25.601-25.6V230.4C460.8,216.262,472.262,204.8,486.4,204.8z"/>
<circle cx="512" cy="563.2" r="51.2"/>
<text transform="matrix(1 0 0 1 102.4062 1587.1875)" font-family="'HelveticaNeue-Bold'" font-size="256">Created by Doejo</text>
<text transform="matrix(1 0 0 1 102.4062 1843.1875)" font-family="'HelveticaNeue-Bold'" font-size="256">from the Noun Project</text>
</svg>
