<?xml version="1.0" encoding="utf-8"?>
<!-- Generator: Adobe Illustrator 16.0.4, SVG Export Plug-In . SVG Version: 6.00 Build 0)  -->
<!DOCTYPE svg PUBLIC "-//W3C//DTD SVG 1.1//EN" "http://www.w3.org/Graphics/SVG/1.1/DTD/svg11.dtd">
<svg version="1.1" id="Layer_1" xmlns="http://www.w3.org/2000/svg" xmlns:xlink="http://www.w3.org/1999/xlink" x="0px" y="0px"
	 width="273px" height="272.592px" viewBox="78.5 0 273 272.592" enable-background="new 78.5 0 273 272.592" xml:space="preserve">
<path d="M150.948,55.341c-4.669,0-8.456-3.783-8.456-8.456V11.867c0-4.676,3.786-8.459,8.456-8.459c4.67,0,8.453,3.783,8.453,8.459
	v35.022C159.401,51.558,155.618,55.341,150.948,55.341z"/>
<path d="M254.29,55.341c-4.669,0-8.456-3.783-8.456-8.456V11.867c0-4.676,3.787-8.459,8.456-8.459c4.667,0,8.453,3.783,8.453,8.459
	v35.022C262.743,51.558,258.957,55.341,254.29,55.341z"/>
<path d="M168.785,219.801h-9.841v-45.605h7.268c0.411-2.014,0.899-3.985,1.438-5.936h-8.705v-44.138h36.619
	c3.148-2.722,6.486-5.22,9.989-7.485V75.47h40.681v27.157c1.957-0.171,3.938-0.283,5.93-0.323V75.47h35.971v33.385
	c3.758,1.528,7.383,3.307,10.867,5.311V48.089c0-10.982-8.938-19.923-19.924-19.923h-8.48v18.723
	c0,9.003-7.302,16.302-16.303,16.302c-9.01,0-16.305-7.302-16.305-16.302V28.166H167.25v18.723c0,9.003-7.298,16.302-16.302,16.302
	c-9.003,0-16.305-7.302-16.305-16.302V28.166h-8.478c-10.989,0-19.927,8.941-19.927,19.923v162.649
	c0,10.991,8.938,19.936,19.927,19.936h46.931C171.426,227.165,169.992,223.537,168.785,219.801z M158.941,75.47h40.678v42.722
	h-40.678V75.47z M153.011,219.801h-26.846c-4.99,0-9.057-4.062-9.057-9.053v-36.553h35.902V219.801z M153.011,168.259h-35.902
	v-44.138h35.902V168.259z M153.011,118.192h-35.902V75.47h35.902V118.192z"/>
<polygon points="291.344,180.205 266.205,180.205 266.205,155.062 242.371,155.062 242.371,180.205 217.234,180.205 
	217.234,204.033 242.371,204.033 242.371,229.178 266.205,229.178 266.205,204.033 291.344,204.033 "/>
<path d="M254.293,268.592c-42.168,0-76.468-34.303-76.468-76.474c0-42.168,34.3-76.465,76.468-76.465
	c42.162,0,76.469,34.297,76.469,76.465C330.762,234.289,296.455,268.592,254.293,268.592z M254.293,133.265
	c-32.455,0-58.859,26.395-58.859,58.853s26.404,58.862,58.859,58.862c32.459,0,58.854-26.404,58.854-58.862
	S286.752,133.265,254.293,133.265z"/>
<text transform="matrix(1 0 0 1 78.5 322.666)" font-family="'HelveticaNeue-Bold'" font-size="15.5556">Created by Yazmin Alanis</text>
<text transform="matrix(1 0 0 1 78.5 338.2227)" font-family="'HelveticaNeue-Bold'" font-size="15.5556">from the Noun Project</text>
</svg>
