<?xml version="1.0" encoding="utf-8"?>
<!-- Generator: Adobe Illustrator 16.0.4, SVG Export Plug-In . SVG Version: 6.00 Build 0)  -->
<!DOCTYPE svg PUBLIC "-//W3C//DTD SVG 1.1//EN" "http://www.w3.org/Graphics/SVG/1.1/DTD/svg11.dtd">
<svg version="1.1" id="Layer_1" xmlns="http://www.w3.org/2000/svg" xmlns:xlink="http://www.w3.org/1999/xlink" x="0px" y="0px"
	 width="280.427px" height="280.5px" viewBox="0 0 280.427 280.5" enable-background="new 0 0 280.427 280.5" xml:space="preserve">
<path d="M269.951,157.88L124.911,11.72c-4.2-4.479-10.08-6.72-15.96-6.72h-80.92c-12.32,0-22.4,10.08-22.4,22.4v80.36
	c0,5.88,2.24,11.48,6.44,15.68l145.6,145.6c4.479,4.479,10.08,6.44,15.96,6.44c5.6,0,11.48-2.24,15.68-6.44l80.36-79.8
	C278.631,180.84,278.631,166.56,269.951,157.88z M261.831,181.4l-80.36,79.8c-2.24,2.239-5.04,3.36-7.84,3.36
	c-3.08,0-5.88-1.121-7.84-3.36l-145.6-145.6c-2.24-1.96-3.36-4.76-3.36-7.84V27.4c0-6.16,5.04-11.2,11.2-11.2h80.92
	c3.08,0,5.88,1.12,8.12,3.36l145.041,146.16C266.311,170.2,266.311,177.2,261.831,181.4z"/>
<path d="M61.631,38.6c-12.32,0-22.4,10.08-22.4,22.4s10.08,22.4,22.4,22.4s22.4-10.08,22.4-22.4S73.951,38.6,61.631,38.6z
	 M61.631,72.2c-6.16,0-11.2-5.04-11.2-11.2s5.04-11.2,11.2-11.2s11.2,5.04,11.2,11.2S67.791,72.2,61.631,72.2z"/>
<text transform="matrix(1 0 0 1 5.6318 327)" font-family="'HelveticaNeue-Bold'" font-size="14">Created by Cengiz SARI</text>
<text transform="matrix(1 0 0 1 5.6318 341)" font-family="'HelveticaNeue-Bold'" font-size="14">from the Noun Project</text>
</svg>
