<?xml version="1.0" encoding="utf-8"?>
<!-- Generator: Adobe Illustrator 21.1.0, SVG Export Plug-In . SVG Version: 6.00 Build 0)  -->
<svg version="1.1" id="Layer_1" xmlns="http://www.w3.org/2000/svg" xmlns:xlink="http://www.w3.org/1999/xlink" x="0px" y="0px"
	 viewBox="0 0 178 178" style="enable-background:new 0 0 178 178;" xml:space="preserve">
<style type="text/css">
	.st0{fill:#FFFFFF;}
</style>
<g>
	<path d="M130.8,127.7l-3.5,3.5c-1.6,1.6-4.1,1.6-5.7,0L80.8,90.3c-1.6-1.6-1.6-4.1,0-5.7l3.5-3.5c1.6-1.6,4.1-1.6,5.7,0l40.8,40.8
		C132.4,123.6,132.4,126.1,130.8,127.7z"/>
	<ellipse transform="matrix(0.7071 -0.7071 0.7071 0.7071 -26.653 63.8215)" cx="63.7" cy="64.1" rx="59.6" ry="59.6"/>
	<path d="M169.7,165.6l-4.5,4.5c-4.7,4.7-12.3,4.7-17,0l-39-39.1c-4.7-4.7-4.7-12.3,0-17l4.5-4.5c4.7-4.7,12.3-4.7,17,0l39.1,39.1
		C174.4,153.3,174.4,161,169.7,165.6z"/>
	<ellipse transform="matrix(0.7071 -0.7071 0.7071 0.7071 -26.653 63.8215)" class="st0" cx="63.7" cy="64.1" rx="42.1" ry="42.1"/>
</g>
</svg>
