<?xml version="1.0" encoding="utf-8"?>
<!-- Generator: Adobe Illustrator 21.1.0, SVG Export Plug-In . SVG Version: 6.00 Build 0)  -->
<svg version="1.1" id="Layer_1" xmlns="http://www.w3.org/2000/svg" xmlns:xlink="http://www.w3.org/1999/xlink" x="0px" y="0px"
	 viewBox="0 0 322.2 54.8" style="enable-background:new 0 0 322.2 54.8;" xml:space="preserve">
<style type="text/css">
	.st0{fill:none;stroke:#000000;stroke-miterlimit:10;}
	.st1{stroke:#56A0D3;stroke-width:0.25;stroke-linejoin:round;}
	.st2{fill:none;}
</style>
<g>
	<g>
		<path d="M589.5-123.8H589c-0.1-0.4-0.3-0.7-0.6-1.1c-0.3-0.4-0.5-0.6-0.7-0.7c-0.1,0-0.3,0-0.5,0s-0.3,0-0.5,0h-0.3v6.5
			c0,0.1,0,0.3,0.1,0.4s0.2,0.2,0.3,0.3c0.1,0,0.2,0.1,0.4,0.1s0.4,0.1,0.5,0.1v0.5h-4.6v-0.5c0.1,0,0.3,0,0.5,0s0.3,0,0.4-0.1
			c0.2-0.1,0.3-0.1,0.3-0.3s0.1-0.2,0.1-0.4v-6.6h-0.3c-0.1,0-0.3,0-0.5,0c-0.2,0-0.3,0-0.5,0c-0.2,0-0.5,0.2-0.7,0.7
			c-0.3,0.4-0.5,0.8-0.6,1.1h-0.5v-2.4h8.1V-123.8z"/>
		<path d="M601.8-117.8h-4.5v-0.5c0.1,0,0.2,0,0.4,0s0.3,0,0.4-0.1c0.1-0.1,0.2-0.1,0.3-0.2s0.1-0.2,0.1-0.4v-2.9H595v2.8
			c0,0.1,0,0.3,0.1,0.4s0.2,0.2,0.3,0.2c0.1,0,0.2,0.1,0.4,0.1s0.3,0.1,0.4,0.1v0.5h-4.5v-0.5c0.1,0,0.2,0,0.4,0s0.3,0,0.4-0.1
			c0.1-0.1,0.2-0.1,0.3-0.2s0.1-0.2,0.1-0.4v-5.9c0-0.1,0-0.3-0.1-0.3s-0.2-0.2-0.3-0.2c-0.1-0.1-0.3-0.1-0.4-0.1s-0.3-0.1-0.4-0.1
			v-0.5h4.5v0.5c-0.1,0-0.3,0-0.4,0.1s-0.3,0.1-0.4,0.1c-0.2,0.1-0.3,0.1-0.3,0.2s-0.1,0.2-0.1,0.4v2.5h3.6v-2.4
			c0-0.1,0-0.3-0.1-0.3s-0.2-0.2-0.3-0.2c-0.1,0-0.2-0.1-0.4-0.1s-0.3-0.1-0.4-0.1v-0.5h4.5v0.5c-0.1,0-0.3,0-0.4,0
			s-0.3,0.1-0.4,0.1c-0.1,0.1-0.2,0.1-0.3,0.2s-0.1,0.2-0.1,0.4v5.9c0,0.1,0,0.3,0.1,0.4s0.2,0.2,0.3,0.2c0.1,0,0.2,0.1,0.4,0.1
			s0.3,0.1,0.4,0.1V-117.8z"/>
		<path d="M611.7-124h-0.4c-0.1-0.3-0.3-0.6-0.6-1c-0.3-0.3-0.6-0.5-0.8-0.6c-0.1,0-0.3,0-0.5,0s-0.4,0-0.5,0h-1.2v3.2h0.9
			c0.2,0,0.4,0,0.6-0.1s0.3-0.1,0.5-0.3c0.1-0.1,0.2-0.2,0.3-0.5s0.2-0.4,0.2-0.6h0.4v3.5H610c0-0.2-0.1-0.4-0.2-0.6
			s-0.2-0.4-0.3-0.5c-0.1-0.1-0.3-0.2-0.5-0.3s-0.4-0.1-0.6-0.1h-0.9v2.4c0,0.2,0,0.4,0.1,0.6s0.1,0.3,0.2,0.3
			c0.1,0.1,0.2,0.1,0.4,0.1s0.4,0,0.7,0c0.1,0,0.3,0,0.5,0s0.4,0,0.5,0c0.2,0,0.3,0,0.5-0.1s0.2-0.1,0.3-0.2
			c0.2-0.2,0.4-0.5,0.6-0.9s0.4-0.7,0.5-0.9h0.4l-0.2,2.6h-7.8v-0.5c0.1,0,0.3,0,0.4,0s0.3-0.1,0.4-0.1c0.1-0.1,0.2-0.1,0.3-0.2
			s0.1-0.2,0.1-0.4v-5.9c0-0.1,0-0.3-0.1-0.3s-0.1-0.2-0.3-0.2c-0.1,0-0.2-0.1-0.4-0.1s-0.3-0.1-0.4-0.1v-0.5h7.4V-124z"/>
		<path d="M629.1-125.7c-0.1,0-0.3,0-0.5,0.1s-0.4,0.1-0.5,0.2c-0.1,0.1-0.3,0.3-0.3,0.5s-0.1,0.6-0.1,1.1v3.1
			c0,0.9-0.3,1.6-0.9,2.2s-1.4,0.8-2.4,0.8c-1.2,0-2.1-0.3-2.7-0.8s-1-1.3-1-2.2v-4.3c0-0.1,0-0.3-0.1-0.4s-0.2-0.2-0.3-0.3
			c-0.1-0.1-0.2-0.1-0.4-0.1s-0.3-0.1-0.4-0.1v-0.4h4.4v0.4c-0.1,0-0.3,0-0.4,0s-0.3,0.1-0.4,0.1c-0.1,0-0.2,0.1-0.3,0.2
			s-0.1,0.2-0.1,0.4v4.2c0,0.8,0.2,1.4,0.5,1.8s0.9,0.6,1.6,0.6c0.7,0,1.2-0.2,1.6-0.6c0.4-0.4,0.6-1,0.6-1.8v-2.8
			c0-0.5,0-0.9-0.1-1.1s-0.2-0.4-0.3-0.5c-0.1-0.1-0.3-0.2-0.5-0.2s-0.4-0.1-0.5-0.1v-0.5h3.6V-125.7z"/>
		<path d="M640.8-125.7c-0.1,0-0.3,0-0.5,0.1s-0.4,0.1-0.6,0.2c-0.1,0.1-0.2,0.3-0.3,0.5s-0.1,0.6-0.1,1.1v5.9h-1l-5.2-6.4v3.9
			c0,0.5,0,0.9,0.1,1.1s0.2,0.4,0.3,0.6c0.1,0.1,0.3,0.2,0.5,0.2s0.4,0.1,0.6,0.1v0.5h-3.6v-0.5c0.2,0,0.3,0,0.5-0.1
			s0.4-0.1,0.5-0.2c0.2-0.1,0.3-0.3,0.3-0.5s0.1-0.6,0.1-1.2v-3.9c0-0.2,0-0.4-0.1-0.6s-0.2-0.3-0.3-0.4c-0.1-0.1-0.3-0.2-0.5-0.3
			s-0.4-0.1-0.6-0.2v-0.5h3.1l4.5,5.6v-3.1c0-0.5,0-0.9-0.1-1.1s-0.2-0.4-0.3-0.5c-0.1-0.1-0.3-0.2-0.5-0.2s-0.4-0.1-0.5-0.1v-0.5
			h3.6V-125.7z"/>
		<path d="M647.6-117.8H643v-0.5c0.1,0,0.3,0,0.5,0s0.3,0,0.4-0.1c0.1-0.1,0.2-0.1,0.3-0.2s0.1-0.2,0.1-0.4v-5.9
			c0-0.1,0-0.2-0.1-0.4s-0.2-0.2-0.3-0.2c-0.1,0-0.2-0.1-0.4-0.1s-0.3-0.1-0.5-0.1v-0.5h4.6v0.5c-0.1,0-0.3,0-0.4,0
			s-0.3,0.1-0.4,0.1c-0.2,0.1-0.3,0.1-0.3,0.2s-0.1,0.2-0.1,0.4v5.9c0,0.1,0,0.3,0.1,0.4s0.2,0.2,0.3,0.2c0.1,0,0.2,0.1,0.4,0.1
			s0.3,0.1,0.5,0.1V-117.8z"/>
		<path d="M659.1-125.7c-0.1,0-0.3,0-0.4,0.1s-0.2,0.1-0.4,0.2c-0.2,0.1-0.3,0.2-0.4,0.3s-0.2,0.3-0.3,0.5c-0.1,0.3-0.3,0.7-0.5,1.2
			s-0.5,1.1-0.8,1.8c-0.2,0.6-0.5,1.2-0.8,2s-0.6,1.4-0.8,2h-1.2c-0.5-1.3-1.1-2.7-1.7-4.1s-1-2.3-1.2-2.9c-0.1-0.2-0.2-0.3-0.3-0.4
			s-0.2-0.2-0.4-0.3c-0.1-0.1-0.2-0.1-0.4-0.2s-0.2-0.1-0.4-0.1v-0.5h4.5v0.4c-0.4,0.1-0.7,0.1-0.9,0.2s-0.2,0.1-0.2,0.2
			c0,0,0,0.1,0,0.1c0,0,0,0.1,0.1,0.2c0.1,0.3,0.4,0.9,0.7,1.7c0.3,0.8,0.8,2,1.5,3.6c0.4-1,0.7-1.8,1-2.5c0.3-0.7,0.5-1.3,0.7-1.8
			c0.1-0.2,0.2-0.5,0.2-0.7s0.1-0.4,0.1-0.5c0-0.1-0.1-0.2-0.3-0.3s-0.5-0.1-1-0.2v-0.5h3.4V-125.7z"/>
		<path d="M668.4-124h-0.4c-0.1-0.3-0.3-0.6-0.6-1c-0.3-0.3-0.6-0.5-0.8-0.6c-0.1,0-0.3,0-0.5,0s-0.4,0-0.5,0h-1.2v3.2h0.9
			c0.2,0,0.4,0,0.6-0.1s0.3-0.1,0.5-0.3c0.1-0.1,0.2-0.2,0.3-0.5s0.2-0.4,0.2-0.6h0.4v3.5h-0.4c0-0.2-0.1-0.4-0.2-0.6
			s-0.2-0.4-0.3-0.5c-0.1-0.1-0.3-0.2-0.5-0.3s-0.4-0.1-0.6-0.1h-0.9v2.4c0,0.2,0,0.4,0.1,0.6s0.1,0.3,0.2,0.3
			c0.1,0.1,0.2,0.1,0.4,0.1s0.4,0,0.7,0c0.1,0,0.3,0,0.5,0s0.4,0,0.5,0c0.2,0,0.3,0,0.5-0.1s0.2-0.1,0.3-0.2
			c0.2-0.2,0.4-0.5,0.6-0.9s0.4-0.7,0.5-0.9h0.4l-0.2,2.6H661v-0.5c0.1,0,0.3,0,0.4,0s0.3-0.1,0.4-0.1c0.1-0.1,0.2-0.1,0.3-0.2
			s0.1-0.2,0.1-0.4v-5.9c0-0.1,0-0.3-0.1-0.3s-0.1-0.2-0.3-0.2c-0.1,0-0.2-0.1-0.4-0.1s-0.3-0.1-0.4-0.1v-0.5h7.4V-124z"/>
		<path d="M680.9-117.8h-3.2c-0.6-0.8-1-1.5-1.4-2c-0.4-0.5-0.8-1.1-1.4-1.7h-0.3v2.5c0,0.1,0,0.3,0.1,0.4s0.2,0.2,0.3,0.2
			c0.1,0,0.2,0.1,0.3,0.1s0.3,0.1,0.4,0.1v0.5h-4.4v-0.5c0.1,0,0.3,0,0.4,0s0.3,0,0.4-0.1c0.1-0.1,0.2-0.1,0.3-0.2s0.1-0.2,0.1-0.4
			v-5.9c0-0.1,0-0.3-0.1-0.4s-0.1-0.2-0.3-0.2c-0.1-0.1-0.3-0.1-0.4-0.1s-0.3-0.1-0.4-0.1v-0.5h4.7c1,0,1.8,0.2,2.4,0.5
			s0.8,0.8,0.8,1.5c0,0.6-0.2,1-0.5,1.4s-0.8,0.6-1.5,0.8c0.3,0.3,0.6,0.7,0.9,1.2s0.7,0.9,1.1,1.4c0.1,0.2,0.3,0.3,0.5,0.6
			s0.4,0.4,0.6,0.4c0.1,0,0.2,0.1,0.3,0.1s0.2,0,0.3,0V-117.8z M676.9-124c0-0.6-0.2-1-0.5-1.2s-0.8-0.4-1.3-0.4h-0.5v3.5h0.4
			c0.6,0,1-0.2,1.3-0.5S676.9-123.4,676.9-124z"/>
		<path d="M686.2-117.6c-0.5,0-1-0.1-1.4-0.2s-0.8-0.3-1.1-0.4l-0.4,0.4h-0.5l-0.1-3h0.5c0.1,0.3,0.3,0.6,0.4,0.9
			c0.2,0.3,0.4,0.6,0.6,0.9c0.2,0.3,0.5,0.5,0.8,0.6s0.6,0.2,1,0.2c0.5,0,0.9-0.1,1.2-0.4c0.3-0.3,0.4-0.6,0.4-1
			c0-0.3-0.1-0.6-0.4-0.8c-0.2-0.2-0.6-0.4-1.1-0.6c-0.3-0.1-0.6-0.2-0.9-0.3s-0.5-0.2-0.8-0.3c-0.6-0.2-1-0.5-1.2-1
			s-0.4-0.9-0.4-1.4c0-0.3,0.1-0.6,0.2-0.9s0.3-0.6,0.6-0.8c0.3-0.2,0.6-0.4,1-0.5c0.4-0.1,0.8-0.2,1.3-0.2c0.5,0,0.9,0.1,1.3,0.2
			s0.7,0.3,0.9,0.4l0.4-0.4h0.5l0,2.8h-0.5c-0.1-0.3-0.3-0.6-0.4-0.9c-0.2-0.3-0.3-0.6-0.5-0.8c-0.2-0.2-0.4-0.4-0.7-0.5
			s-0.5-0.2-0.9-0.2c-0.4,0-0.8,0.1-1,0.4s-0.4,0.5-0.4,0.9c0,0.3,0.1,0.6,0.3,0.8s0.6,0.4,1.1,0.6c0.3,0.1,0.6,0.2,0.9,0.3
			c0.3,0.1,0.6,0.2,0.8,0.3c0.6,0.2,1,0.5,1.3,0.9s0.4,0.9,0.4,1.4c0,0.4-0.1,0.7-0.3,1s-0.4,0.6-0.7,0.8c-0.3,0.2-0.7,0.4-1.1,0.6
			C687.2-117.7,686.7-117.6,686.2-117.6z"/>
		<path d="M696.8-117.8h-4.6v-0.5c0.1,0,0.3,0,0.5,0s0.3,0,0.4-0.1c0.1-0.1,0.2-0.1,0.3-0.2s0.1-0.2,0.1-0.4v-5.9
			c0-0.1,0-0.2-0.1-0.4s-0.2-0.2-0.3-0.2c-0.1,0-0.2-0.1-0.4-0.1s-0.3-0.1-0.5-0.1v-0.5h4.6v0.5c-0.1,0-0.3,0-0.4,0
			s-0.3,0.1-0.4,0.1c-0.2,0.1-0.3,0.1-0.3,0.2s-0.1,0.2-0.1,0.4v5.9c0,0.1,0,0.3,0.1,0.4s0.2,0.2,0.3,0.2c0.1,0,0.2,0.1,0.4,0.1
			s0.3,0.1,0.5,0.1V-117.8z"/>
		<path d="M707-123.8h-0.5c-0.1-0.4-0.3-0.7-0.6-1.1s-0.5-0.6-0.7-0.7c-0.1,0-0.3,0-0.5,0c-0.2,0-0.3,0-0.5,0H704v6.5
			c0,0.1,0,0.3,0.1,0.4s0.2,0.2,0.3,0.3c0.1,0,0.2,0.1,0.4,0.1s0.3,0.1,0.5,0.1v0.5h-4.6v-0.5c0.1,0,0.3,0,0.5,0s0.3,0,0.4-0.1
			c0.2-0.1,0.3-0.1,0.3-0.3s0.1-0.2,0.1-0.4v-6.6h-0.3c-0.1,0-0.3,0-0.5,0s-0.3,0-0.5,0c-0.2,0-0.5,0.2-0.7,0.7s-0.5,0.8-0.6,1.1
			h-0.5v-2.4h8.1V-123.8z"/>
		<path d="M718-125.7c-0.1,0-0.3,0-0.4,0.1c-0.1,0-0.2,0.1-0.3,0.1c-0.2,0.1-0.3,0.2-0.4,0.4c-0.1,0.1-0.3,0.3-0.4,0.5
			c-0.3,0.4-0.5,0.8-0.8,1.2c-0.3,0.4-0.6,0.9-0.9,1.4c-0.2,0.3-0.3,0.6-0.4,0.8c0,0.2-0.1,0.5-0.1,0.9v1.2c0,0.1,0,0.3,0.1,0.4
			s0.2,0.2,0.3,0.3c0.1,0,0.2,0.1,0.4,0.1s0.4,0.1,0.5,0.1v0.5h-4.6v-0.5c0.1,0,0.3,0,0.5,0s0.3-0.1,0.4-0.1
			c0.1-0.1,0.2-0.1,0.3-0.2s0.1-0.2,0.1-0.4v-1.5c0-0.1,0-0.2,0-0.3s0-0.2,0-0.2c0-0.1-0.1-0.2-0.1-0.3s-0.2-0.3-0.3-0.4
			c-0.3-0.5-0.6-1-0.9-1.5s-0.5-0.9-0.8-1.3c-0.1-0.2-0.3-0.4-0.4-0.5s-0.3-0.2-0.4-0.3c-0.1-0.1-0.2-0.1-0.4-0.1s-0.3-0.1-0.4-0.1
			v-0.5h4.8v0.5c-0.4,0-0.7,0-0.9,0.1c-0.2,0-0.2,0.1-0.2,0.2c0,0,0,0.1,0.1,0.3s0.2,0.3,0.3,0.6c0.1,0.3,0.3,0.6,0.6,1
			s0.6,1,0.9,1.6c0.7-1.2,1.2-2,1.5-2.5c0.3-0.5,0.4-0.8,0.4-0.9c0-0.1-0.1-0.2-0.2-0.3s-0.4-0.1-0.8-0.1v-0.5h3.1V-125.7z"/>
		<path d="M587.4-104.4c0,0.5-0.1,0.9-0.2,1.4s-0.4,0.9-0.7,1.2c-0.3,0.4-0.7,0.6-1.1,0.9c-0.4,0.2-0.9,0.3-1.5,0.3
			c-0.6,0-1.2-0.2-1.6-0.6s-0.6-1-0.6-1.7c0-0.5,0.1-1,0.3-1.5c0.2-0.4,0.4-0.8,0.7-1.2c0.3-0.3,0.7-0.6,1.1-0.8
			c0.4-0.2,0.9-0.3,1.4-0.3c0.7,0,1.2,0.2,1.6,0.6S587.4-105.1,587.4-104.4z M586.2-104.7c0-0.6-0.1-1-0.3-1.2s-0.5-0.4-0.9-0.4
			c-0.3,0-0.6,0.1-0.9,0.3c-0.3,0.2-0.5,0.5-0.7,1c-0.2,0.3-0.3,0.7-0.4,1.1s-0.1,0.8-0.1,1.2c0,0.6,0.1,1,0.3,1.3s0.5,0.4,0.9,0.4
			c0.3,0,0.7-0.1,0.9-0.3c0.3-0.2,0.5-0.5,0.7-0.8c0.2-0.3,0.3-0.7,0.4-1.1S586.2-104.2,586.2-104.7z"/>
		<path d="M592.4-106l-1,4.8c-0.2,0.9-0.6,1.6-1.2,2.1s-1.2,0.8-1.8,0.8c-0.3,0-0.6-0.1-0.8-0.2c-0.2-0.1-0.2-0.3-0.2-0.5
			c0-0.2,0.1-0.3,0.2-0.4s0.2-0.2,0.4-0.2c0.1,0,0.2,0,0.3,0.1s0.2,0.1,0.2,0.2c0.1,0.1,0.1,0.2,0.2,0.3s0.1,0.2,0.2,0.3
			c0.3,0,0.6-0.2,0.8-0.6s0.4-0.9,0.6-1.6l1.1-5.1h-1.1l0.1-0.5h1.1l0.1-0.4c0.1-0.5,0.2-0.9,0.4-1.2s0.4-0.7,0.7-0.9
			c0.3-0.2,0.5-0.4,0.9-0.6c0.3-0.1,0.6-0.2,0.9-0.2c0.3,0,0.6,0.1,0.8,0.2s0.2,0.3,0.2,0.5c0,0.2,0,0.3-0.1,0.4s-0.2,0.2-0.5,0.2
			c-0.1,0-0.2,0-0.3-0.1c-0.1-0.1-0.2-0.1-0.2-0.2c-0.1-0.1-0.1-0.2-0.2-0.3s-0.1-0.2-0.2-0.3c-0.3,0-0.5,0.2-0.7,0.5
			c-0.2,0.3-0.4,0.9-0.6,1.7l-0.1,0.6h1.5l-0.1,0.5H592.4z"/>
		<path d="M609.9-108.7c-0.1,0-0.3,0-0.5,0.1s-0.4,0.1-0.6,0.2c-0.1,0.1-0.2,0.3-0.3,0.5s-0.1,0.6-0.1,1.1v5.9h-1l-5.2-6.4v3.9
			c0,0.5,0,0.9,0.1,1.1s0.2,0.4,0.3,0.6c0.1,0.1,0.3,0.2,0.5,0.2s0.4,0.1,0.6,0.1v0.5h-3.6v-0.5c0.2,0,0.3,0,0.5-0.1
			s0.4-0.1,0.5-0.2c0.2-0.1,0.3-0.3,0.3-0.5s0.1-0.6,0.1-1.2v-3.9c0-0.2,0-0.4-0.1-0.6s-0.2-0.3-0.3-0.4c-0.1-0.1-0.3-0.2-0.5-0.3
			s-0.4-0.1-0.6-0.2v-0.5h3.1l4.5,5.6v-3.1c0-0.5,0-0.9-0.1-1.1s-0.2-0.4-0.3-0.5c-0.1-0.1-0.3-0.2-0.5-0.2s-0.4-0.1-0.5-0.1v-0.5
			h3.6V-108.7z"/>
		<path d="M619.8-108.2c0.4,0.4,0.7,0.8,1,1.4s0.4,1.1,0.4,1.8c0,0.6-0.1,1.2-0.3,1.7s-0.5,1-0.9,1.4c-0.4,0.4-0.9,0.7-1.4,1
			s-1.2,0.3-1.9,0.3c-0.6,0-1.2-0.1-1.7-0.3s-1-0.5-1.4-0.9c-0.4-0.4-0.7-0.8-1-1.4s-0.4-1.1-0.4-1.8c0-0.7,0.1-1.3,0.3-1.8
			s0.6-1,1-1.4c0.4-0.4,0.9-0.7,1.4-0.9s1.1-0.3,1.8-0.3c0.6,0,1.2,0.1,1.7,0.3S619.4-108.6,619.8-108.2z M618.3-102.3
			c0.2-0.4,0.3-0.8,0.4-1.2s0.1-1,0.1-1.5c0-0.5,0-0.9-0.1-1.4c-0.1-0.5-0.2-0.9-0.3-1.2c-0.2-0.4-0.4-0.6-0.7-0.9s-0.6-0.3-1-0.3
			c-0.7,0-1.2,0.3-1.6,1s-0.6,1.6-0.6,2.8c0,0.5,0,1,0.1,1.5s0.2,0.9,0.4,1.2c0.2,0.3,0.4,0.6,0.7,0.8s0.6,0.3,1,0.3
			c0.4,0,0.7-0.1,1-0.3C618-101.7,618.2-101.9,618.3-102.3z"/>
		<path d="M633.3-100.8h-3.2c-0.6-0.8-1-1.5-1.4-2c-0.4-0.5-0.8-1.1-1.4-1.7H627v2.5c0,0.1,0,0.3,0.1,0.4s0.2,0.2,0.3,0.2
			c0.1,0,0.2,0.1,0.3,0.1s0.3,0.1,0.4,0.1v0.5h-4.4v-0.5c0.1,0,0.3,0,0.4,0s0.3,0,0.4-0.1c0.1-0.1,0.2-0.1,0.3-0.2s0.1-0.2,0.1-0.4
			v-5.9c0-0.1,0-0.3-0.1-0.4s-0.1-0.2-0.3-0.2c-0.1-0.1-0.3-0.1-0.4-0.1s-0.3-0.1-0.4-0.1v-0.5h4.7c1,0,1.8,0.2,2.4,0.5
			s0.8,0.8,0.8,1.5c0,0.6-0.2,1-0.5,1.4s-0.8,0.6-1.5,0.8c0.3,0.3,0.6,0.7,0.9,1.2s0.7,0.9,1.1,1.4c0.1,0.2,0.3,0.3,0.5,0.6
			s0.4,0.4,0.6,0.4c0.1,0,0.2,0.1,0.3,0.1s0.2,0,0.3,0V-100.8z M629.3-107c0-0.6-0.2-1-0.5-1.2s-0.8-0.4-1.3-0.4H627v3.5h0.4
			c0.6,0,1-0.2,1.3-0.5S629.3-106.4,629.3-107z"/>
		<path d="M642.8-106.8h-0.5c-0.1-0.4-0.3-0.7-0.6-1.1c-0.3-0.4-0.5-0.6-0.7-0.7c-0.1,0-0.3,0-0.5,0s-0.3,0-0.5,0h-0.3v6.5
			c0,0.1,0,0.3,0.1,0.4s0.2,0.2,0.3,0.3c0.1,0,0.2,0.1,0.4,0.1s0.4,0.1,0.5,0.1v0.5h-4.6v-0.5c0.1,0,0.3,0,0.5,0s0.3,0,0.4-0.1
			c0.2-0.1,0.3-0.1,0.3-0.3s0.1-0.2,0.1-0.4v-6.6h-0.3c-0.1,0-0.3,0-0.5,0s-0.3,0-0.5,0c-0.2,0-0.5,0.2-0.7,0.7
			c-0.3,0.4-0.5,0.8-0.6,1.1h-0.5v-2.4h8.1V-106.8z"/>
		<path d="M655.1-100.8h-4.5v-0.5c0.1,0,0.2,0,0.4,0s0.3,0,0.4-0.1c0.1-0.1,0.2-0.1,0.3-0.2s0.1-0.2,0.1-0.4v-2.9h-3.6v2.8
			c0,0.1,0,0.3,0.1,0.4s0.2,0.2,0.3,0.2c0.1,0,0.2,0.1,0.4,0.1s0.3,0.1,0.4,0.1v0.5H645v-0.5c0.1,0,0.2,0,0.4,0s0.3,0,0.4-0.1
			c0.1-0.1,0.2-0.1,0.3-0.2s0.1-0.2,0.1-0.4v-5.9c0-0.1,0-0.3-0.1-0.3s-0.1-0.2-0.3-0.2c-0.1-0.1-0.3-0.1-0.4-0.1s-0.3-0.1-0.4-0.1
			v-0.5h4.5v0.5c-0.1,0-0.3,0-0.4,0.1s-0.3,0.1-0.4,0.1c-0.2,0.1-0.3,0.1-0.3,0.2s-0.1,0.2-0.1,0.4v2.5h3.6v-2.4
			c0-0.1,0-0.3-0.1-0.3s-0.2-0.2-0.3-0.2c-0.1,0-0.2-0.1-0.4-0.1s-0.3-0.1-0.4-0.1v-0.5h4.5v0.5c-0.1,0-0.3,0-0.4,0
			s-0.3,0.1-0.4,0.1c-0.1,0.1-0.2,0.1-0.3,0.2s-0.1,0.2-0.1,0.4v5.9c0,0.1,0,0.3,0.1,0.4s0.2,0.2,0.3,0.2c0.1,0,0.2,0.1,0.4,0.1
			s0.3,0.1,0.4,0.1V-100.8z"/>
		<path d="M666.8-100.6c-0.6,0-1.2-0.1-1.7-0.3c-0.5-0.2-1-0.5-1.4-0.9c-0.4-0.4-0.7-0.8-0.9-1.4c-0.2-0.5-0.3-1.1-0.3-1.8
			c0-0.6,0.1-1.2,0.3-1.8c0.2-0.5,0.5-1,0.9-1.4c0.4-0.4,0.9-0.7,1.4-0.9s1.2-0.3,1.8-0.3c0.5,0,0.9,0.1,1.3,0.2s0.7,0.2,1,0.4
			l0.4-0.3h0.5l0.1,3h-0.5c-0.3-0.9-0.6-1.6-1.1-2c-0.4-0.4-0.9-0.7-1.5-0.7c-0.7,0-1.3,0.3-1.7,1c-0.4,0.6-0.6,1.6-0.6,2.7
			c0,0.7,0.1,1.2,0.2,1.7c0.1,0.5,0.3,0.8,0.5,1.1c0.2,0.3,0.5,0.5,0.8,0.7c0.3,0.1,0.7,0.2,1,0.2c0.5,0,1-0.1,1.5-0.4
			c0.4-0.3,0.8-0.7,1.2-1.3l0.5,0.3c-0.2,0.3-0.4,0.7-0.6,0.9s-0.5,0.5-0.7,0.7c-0.3,0.2-0.6,0.4-1,0.5S667.3-100.6,666.8-100.6z"/>
		<path d="M681.8-100.8h-4.5v-0.5c0.2,0,0.5-0.1,0.7-0.1s0.4-0.1,0.4-0.2c0,0,0-0.1,0-0.1s0-0.1,0-0.2l-0.7-1.7h-2.9
			c-0.1,0.2-0.1,0.3-0.2,0.6c-0.1,0.2-0.1,0.4-0.2,0.6c-0.1,0.2-0.1,0.4-0.1,0.5s0,0.2,0,0.2c0,0.1,0.1,0.2,0.3,0.3
			c0.2,0.1,0.5,0.2,0.9,0.2v0.5H672v-0.5c0.1,0,0.3,0,0.4-0.1s0.3-0.1,0.4-0.1c0.2-0.1,0.3-0.2,0.4-0.3s0.2-0.3,0.3-0.5
			c0.5-1.1,0.9-2.2,1.4-3.3s1-2.3,1.5-3.6h1.2c0.8,1.9,1.4,3.4,1.8,4.5s0.8,2,1.1,2.7c0.1,0.1,0.1,0.2,0.2,0.3s0.2,0.2,0.3,0.3
			c0.1,0.1,0.2,0.1,0.4,0.1s0.3,0.1,0.4,0.1V-100.8z M677.4-104.2l-1.2-3l-1.2,3H677.4z"/>
		<path d="M693.1-100.8h-3.2c-0.6-0.8-1-1.5-1.4-2s-0.8-1.1-1.4-1.7h-0.3v2.5c0,0.1,0,0.3,0.1,0.4s0.2,0.2,0.3,0.2
			c0.1,0,0.2,0.1,0.3,0.1s0.3,0.1,0.4,0.1v0.5h-4.4v-0.5c0.1,0,0.3,0,0.4,0s0.3,0,0.4-0.1c0.1-0.1,0.2-0.1,0.3-0.2s0.1-0.2,0.1-0.4
			v-5.9c0-0.1,0-0.3-0.1-0.4s-0.1-0.2-0.3-0.2c-0.1-0.1-0.3-0.1-0.4-0.1s-0.3-0.1-0.4-0.1v-0.5h4.7c1,0,1.8,0.2,2.4,0.5
			s0.8,0.8,0.8,1.5c0,0.6-0.2,1-0.5,1.4s-0.8,0.6-1.5,0.8c0.3,0.3,0.6,0.7,0.9,1.2s0.7,0.9,1.1,1.4c0.1,0.2,0.3,0.3,0.5,0.6
			s0.4,0.4,0.6,0.4c0.1,0,0.2,0.1,0.3,0.1s0.2,0,0.3,0V-100.8z M689.1-107c0-0.6-0.2-1-0.5-1.2s-0.8-0.4-1.3-0.4h-0.5v3.5h0.4
			c0.6,0,1-0.2,1.3-0.5S689.1-106.4,689.1-107z"/>
		<path d="M702.5-108.2c0.4,0.4,0.7,0.8,1,1.4s0.4,1.1,0.4,1.8c0,0.6-0.1,1.2-0.3,1.7s-0.5,1-0.9,1.4c-0.4,0.4-0.9,0.7-1.4,1
			s-1.2,0.3-1.9,0.3c-0.6,0-1.2-0.1-1.7-0.3s-1-0.5-1.4-0.9c-0.4-0.4-0.7-0.8-1-1.4s-0.4-1.1-0.4-1.8c0-0.7,0.1-1.3,0.3-1.8
			s0.6-1,1-1.4c0.4-0.4,0.9-0.7,1.4-0.9s1.1-0.3,1.8-0.3c0.6,0,1.2,0.1,1.8,0.3S702.1-108.6,702.5-108.2z M701-102.3
			c0.2-0.4,0.3-0.8,0.4-1.2s0.1-1,0.1-1.5c0-0.5,0-0.9-0.1-1.4c-0.1-0.5-0.2-0.9-0.3-1.2c-0.2-0.4-0.4-0.6-0.7-0.9s-0.6-0.3-1-0.3
			c-0.7,0-1.2,0.3-1.6,1s-0.6,1.6-0.6,2.8c0,0.5,0,1,0.1,1.5s0.2,0.9,0.4,1.2c0.2,0.3,0.4,0.6,0.7,0.8s0.6,0.3,1,0.3
			c0.4,0,0.7-0.1,1-0.3C700.6-101.7,700.9-101.9,701-102.3z"/>
		<path d="M714.2-103.5l-0.2,2.7h-7.7v-0.5c0.1,0,0.3,0,0.5-0.1s0.3,0,0.4-0.1c0.1-0.1,0.2-0.1,0.3-0.2s0.1-0.2,0.1-0.4v-5.9
			c0-0.1,0-0.3-0.1-0.3s-0.1-0.2-0.3-0.2c-0.1-0.1-0.3-0.1-0.4-0.1s-0.3-0.1-0.4-0.1v-0.5h4.6v0.5c-0.1,0-0.3,0-0.4,0
			s-0.3,0.1-0.4,0.1c-0.2,0.1-0.3,0.1-0.3,0.2s-0.1,0.2-0.1,0.4v5.5c0,0.3,0,0.5,0.1,0.6s0.1,0.3,0.2,0.3c0.1,0.1,0.2,0.1,0.4,0.1
			s0.4,0,0.8,0c0.3,0,0.6,0,0.9-0.1s0.5-0.1,0.6-0.2c0.2-0.2,0.4-0.5,0.6-0.8s0.4-0.7,0.5-1H714.2z"/>
		<path d="M721-100.8h-4.6v-0.5c0.1,0,0.3,0,0.5,0s0.3,0,0.4-0.1c0.1-0.1,0.2-0.1,0.3-0.2s0.1-0.2,0.1-0.4v-5.9c0-0.1,0-0.2-0.1-0.4
			s-0.2-0.2-0.3-0.2c-0.1,0-0.2-0.1-0.4-0.1s-0.3-0.1-0.5-0.1v-0.5h4.6v0.5c-0.1,0-0.3,0-0.4,0s-0.3,0.1-0.4,0.1
			c-0.2,0.1-0.3,0.1-0.3,0.2s-0.1,0.2-0.1,0.4v5.9c0,0.1,0,0.3,0.1,0.4s0.2,0.2,0.3,0.2c0.1,0,0.2,0.1,0.4,0.1s0.3,0.1,0.5,0.1
			V-100.8z"/>
		<path d="M733-108.7c-0.1,0-0.3,0-0.5,0.1s-0.4,0.1-0.6,0.2c-0.1,0.1-0.2,0.3-0.3,0.5s-0.1,0.6-0.1,1.1v5.9h-1l-5.2-6.4v3.9
			c0,0.5,0,0.9,0.1,1.1s0.2,0.4,0.3,0.6c0.1,0.1,0.3,0.2,0.5,0.2s0.4,0.1,0.6,0.1v0.5h-3.6v-0.5c0.2,0,0.3,0,0.5-0.1
			s0.4-0.1,0.5-0.2c0.2-0.1,0.3-0.3,0.3-0.5s0.1-0.6,0.1-1.2v-3.9c0-0.2,0-0.4-0.1-0.6s-0.2-0.3-0.3-0.4c-0.1-0.1-0.3-0.2-0.5-0.3
			s-0.4-0.1-0.6-0.2v-0.5h3.1l4.5,5.6v-3.1c0-0.5,0-0.9-0.1-1.1s-0.2-0.4-0.3-0.5c-0.1-0.1-0.3-0.2-0.5-0.2s-0.4-0.1-0.5-0.1v-0.5
			h3.6V-108.7z"/>
		<path d="M744.3-100.8h-4.5v-0.5c0.2,0,0.5-0.1,0.7-0.1c0.3-0.1,0.4-0.1,0.4-0.2c0,0,0-0.1,0-0.1s0-0.1,0-0.2l-0.7-1.7h-2.9
			c-0.1,0.2-0.1,0.3-0.2,0.6c-0.1,0.2-0.1,0.4-0.2,0.6c-0.1,0.2-0.1,0.4-0.1,0.5s0,0.2,0,0.2c0,0.1,0.1,0.2,0.3,0.3s0.5,0.2,0.9,0.2
			v0.5h-3.4v-0.5c0.1,0,0.3,0,0.4-0.1s0.3-0.1,0.4-0.1c0.2-0.1,0.3-0.2,0.4-0.3s0.2-0.3,0.3-0.5c0.5-1.1,0.9-2.2,1.4-3.3
			s1-2.3,1.5-3.6h1.2c0.8,1.9,1.4,3.4,1.8,4.5s0.8,2,1.1,2.7c0.1,0.1,0.1,0.2,0.2,0.3s0.2,0.2,0.3,0.3c0.1,0.1,0.2,0.1,0.4,0.1
			s0.3,0.1,0.4,0.1V-100.8z M739.9-104.2l-1.2-3l-1.2,3H739.9z"/>
		<path d="M585.4-84.6L585.4-84.6c-0.1,0.1-0.2,0.2-0.3,0.3s-0.3,0.2-0.4,0.3c-0.2,0.1-0.3,0.2-0.5,0.3s-0.4,0.1-0.6,0.1
			c-0.6,0-1-0.2-1.3-0.6c-0.3-0.4-0.5-1-0.5-1.7c0-0.5,0.1-1,0.3-1.4c0.2-0.5,0.4-0.9,0.7-1.2c0.3-0.3,0.7-0.6,1.1-0.8
			c0.4-0.2,0.8-0.3,1.3-0.3c0.3,0,0.5,0,0.8,0.1s0.5,0.2,0.6,0.3l1.1-0.3l0.1,0.1l-0.9,3.8c0,0.1-0.1,0.3-0.1,0.4s0,0.3,0,0.4
			c0,0.2,0,0.4,0.1,0.5s0.3,0.1,0.5,0.1c0.1,0,0.2,0,0.3,0s0.2,0,0.3-0.1l-0.1,0.4c-0.4,0.1-0.6,0.2-0.8,0.3
			c-0.2,0.1-0.4,0.1-0.6,0.1c-0.3,0-0.5-0.1-0.7-0.2C585.5-84.1,585.4-84.3,585.4-84.6z M586.3-88.3c0-0.1,0-0.3,0-0.4
			c0-0.1-0.1-0.2-0.2-0.3c-0.1-0.1-0.2-0.2-0.3-0.2s-0.3-0.1-0.5-0.1c-0.3,0-0.6,0.1-0.8,0.3c-0.3,0.2-0.5,0.4-0.7,0.8
			c-0.2,0.3-0.4,0.7-0.5,1.1s-0.2,0.9-0.2,1.3c0,0.2,0,0.4,0,0.6c0,0.2,0.1,0.4,0.2,0.5c0.1,0.1,0.2,0.3,0.3,0.3s0.3,0.1,0.5,0.1
			c0.2,0,0.4-0.1,0.7-0.2c0.2-0.1,0.5-0.3,0.8-0.6L586.3-88.3z"/>
		<path d="M591.7-83.7c-0.4,0-0.6-0.1-0.8-0.2s-0.3-0.4-0.3-0.6c0-0.1,0-0.2,0-0.3s0-0.2,0-0.3l0.9-3.9h-1l0.1-0.5h1.1l0.4-1.7h1.1
			l-0.4,1.7h1.6l-0.1,0.5h-1.6l-0.8,3.2c0,0.1-0.1,0.3-0.1,0.4s0,0.3,0,0.4c0,0.2,0.1,0.4,0.2,0.5s0.3,0.1,0.6,0.1
			c0.1,0,0.2,0,0.4,0s0.3-0.1,0.4-0.1l-0.1,0.4c-0.3,0.1-0.5,0.2-0.8,0.3S592-83.7,591.7-83.7z"/>
		<path d="M605.4-83.6c-0.6,0-1.2-0.1-1.7-0.3c-0.5-0.2-1-0.5-1.4-0.9c-0.4-0.4-0.7-0.8-0.9-1.4c-0.2-0.5-0.3-1.1-0.3-1.8
			c0-0.6,0.1-1.2,0.3-1.8c0.2-0.5,0.5-1,0.9-1.4c0.4-0.4,0.9-0.7,1.4-0.9s1.2-0.3,1.8-0.3c0.5,0,0.9,0.1,1.3,0.2s0.7,0.2,1,0.4
			l0.4-0.3h0.5l0.1,3h-0.5c-0.3-0.9-0.6-1.6-1.1-2s-0.9-0.7-1.5-0.7c-0.7,0-1.3,0.3-1.7,1c-0.4,0.6-0.6,1.6-0.6,2.7
			c0,0.7,0.1,1.2,0.2,1.7c0.1,0.5,0.3,0.8,0.5,1.1c0.2,0.3,0.5,0.5,0.8,0.7c0.3,0.1,0.6,0.2,1,0.2c0.5,0,1-0.1,1.5-0.4
			s0.8-0.7,1.2-1.3l0.5,0.3c-0.2,0.3-0.4,0.7-0.6,0.9s-0.5,0.5-0.7,0.7c-0.3,0.2-0.7,0.4-1,0.5S605.9-83.6,605.4-83.6z"/>
		<path d="M621.5-83.8H617v-0.5c0.1,0,0.2,0,0.4,0s0.3,0,0.4-0.1c0.1-0.1,0.2-0.1,0.3-0.2s0.1-0.2,0.1-0.4v-2.9h-3.6v2.8
			c0,0.1,0,0.3,0.1,0.4s0.2,0.2,0.3,0.2c0.1,0,0.2,0.1,0.4,0.1s0.3,0.1,0.4,0.1v0.5h-4.5v-0.5c0.1,0,0.2,0,0.4,0s0.3,0,0.4-0.1
			c0.1-0.1,0.2-0.1,0.3-0.2s0.1-0.2,0.1-0.4v-5.9c0-0.1,0-0.3-0.1-0.3s-0.1-0.2-0.3-0.2c-0.1-0.1-0.3-0.1-0.4-0.1s-0.3-0.1-0.4-0.1
			v-0.5h4.5v0.5c-0.1,0-0.3,0-0.4,0.1s-0.3,0.1-0.4,0.1c-0.2,0.1-0.3,0.1-0.3,0.2s-0.1,0.2-0.1,0.4v2.5h3.6v-2.4
			c0-0.1,0-0.3-0.1-0.3s-0.2-0.2-0.3-0.2c-0.1,0-0.2-0.1-0.4-0.1s-0.3-0.1-0.4-0.1v-0.5h4.5v0.5c-0.1,0-0.3,0-0.4,0
			s-0.3,0.1-0.4,0.1c-0.1,0.1-0.2,0.1-0.3,0.2s-0.1,0.2-0.1,0.4v5.9c0,0.1,0,0.3,0.1,0.4s0.2,0.2,0.3,0.2c0.1,0,0.2,0.1,0.4,0.1
			s0.3,0.1,0.4,0.1V-83.8z"/>
		<path d="M633-83.8h-4.5v-0.5c0.2,0,0.5-0.1,0.7-0.1s0.4-0.1,0.4-0.2c0,0,0-0.1,0-0.1s0-0.1,0-0.2l-0.7-1.7H626
			c-0.1,0.2-0.1,0.3-0.2,0.6c-0.1,0.2-0.1,0.4-0.2,0.6c-0.1,0.2-0.1,0.4-0.1,0.5s0,0.2,0,0.2c0,0.1,0.1,0.2,0.3,0.3s0.5,0.2,0.9,0.2
			v0.5h-3.4v-0.5c0.1,0,0.3,0,0.4-0.1s0.3-0.1,0.4-0.1c0.2-0.1,0.3-0.2,0.4-0.3s0.2-0.3,0.3-0.5c0.5-1.1,0.9-2.2,1.4-3.3
			s1-2.3,1.5-3.6h1.2c0.8,1.9,1.4,3.4,1.8,4.5s0.8,2,1.1,2.7c0.1,0.1,0.1,0.2,0.2,0.3s0.2,0.2,0.3,0.3c0.1,0.1,0.2,0.1,0.4,0.1
			s0.3,0.1,0.4,0.1V-83.8z M628.7-87.2l-1.2-3l-1.2,3H628.7z"/>
		<path d="M642.6-90.1c0,0.5-0.1,0.9-0.3,1.2s-0.5,0.6-0.8,0.8c-0.4,0.2-0.8,0.4-1.2,0.5s-1,0.1-1.5,0.1h-0.7v2.3
			c0,0.1,0,0.3,0.1,0.4s0.2,0.2,0.3,0.2c0.1,0,0.2,0.1,0.4,0.1s0.3,0.1,0.4,0.1v0.5h-4.5v-0.5c0.1,0,0.3,0,0.5,0s0.3,0,0.4-0.1
			c0.2-0.1,0.3-0.1,0.3-0.2s0.1-0.2,0.1-0.4v-5.9c0-0.1,0-0.3-0.1-0.4s-0.1-0.2-0.3-0.2c-0.1,0-0.3-0.1-0.4-0.1s-0.3-0.1-0.4-0.1
			v-0.5h4.6c1.1,0,1.9,0.2,2.4,0.5S642.6-90.8,642.6-90.1z M640.3-89.8c0-0.6-0.1-1.1-0.4-1.4s-0.7-0.5-1.3-0.5h-0.5v3.7h0.2
			c0.6,0,1.1-0.1,1.5-0.4S640.3-89.1,640.3-89.8z"/>
		<path d="M652.4-90h-0.4c-0.1-0.3-0.3-0.6-0.6-1c-0.3-0.3-0.6-0.5-0.8-0.6c-0.1,0-0.3,0-0.5,0s-0.4,0-0.5,0h-1.2v3.2h0.9
			c0.2,0,0.4,0,0.6-0.1s0.3-0.1,0.5-0.3c0.1-0.1,0.2-0.2,0.3-0.5s0.2-0.4,0.2-0.6h0.4v3.5h-0.4c0-0.2-0.1-0.4-0.2-0.6
			s-0.2-0.4-0.3-0.5c-0.1-0.1-0.3-0.2-0.5-0.3s-0.4-0.1-0.6-0.1h-0.9v2.4c0,0.2,0,0.4,0.1,0.6s0.1,0.3,0.2,0.3
			c0.1,0.1,0.2,0.1,0.4,0.1s0.4,0,0.7,0c0.1,0,0.3,0,0.5,0s0.4,0,0.5,0c0.2,0,0.3,0,0.5-0.1s0.2-0.1,0.3-0.2
			c0.2-0.2,0.4-0.5,0.6-0.9s0.4-0.7,0.5-0.9h0.4l-0.2,2.6H645v-0.5c0.1,0,0.3,0,0.4,0s0.3-0.1,0.4-0.1c0.1-0.1,0.2-0.1,0.3-0.2
			s0.1-0.2,0.1-0.4v-5.9c0-0.1,0-0.3-0.1-0.3s-0.1-0.2-0.3-0.2c-0.1,0-0.2-0.1-0.4-0.1s-0.3-0.1-0.4-0.1v-0.5h7.4V-90z"/>
		<path d="M663.2-86.5l-0.2,2.7h-7.7v-0.5c0.1,0,0.3,0,0.5-0.1s0.3,0,0.4-0.1c0.1-0.1,0.2-0.1,0.3-0.2s0.1-0.2,0.1-0.4v-5.9
			c0-0.1,0-0.3-0.1-0.3s-0.1-0.2-0.3-0.2c-0.1-0.1-0.3-0.1-0.4-0.1s-0.3-0.1-0.4-0.1v-0.5h4.6v0.5c-0.1,0-0.3,0-0.4,0
			s-0.3,0.1-0.4,0.1c-0.2,0.1-0.3,0.1-0.3,0.2s-0.1,0.2-0.1,0.4v5.5c0,0.3,0,0.5,0.1,0.6s0.1,0.3,0.2,0.3c0.1,0.1,0.2,0.1,0.4,0.1
			s0.4,0,0.8,0c0.3,0,0.6,0,0.9-0.1s0.5-0.1,0.6-0.2c0.2-0.2,0.4-0.5,0.6-0.8s0.4-0.7,0.5-1H663.2z"/>
		<path d="M680.2-83.8h-4.5v-0.5c0.1,0,0.2,0,0.4,0s0.3,0,0.4-0.1c0.1-0.1,0.2-0.1,0.3-0.2s0.1-0.2,0.1-0.4v-2.9h-3.6v2.8
			c0,0.1,0,0.3,0.1,0.4s0.2,0.2,0.3,0.2c0.1,0,0.2,0.1,0.4,0.1s0.3,0.1,0.4,0.1v0.5h-4.5v-0.5c0.1,0,0.2,0,0.4,0s0.3,0,0.4-0.1
			c0.1-0.1,0.2-0.1,0.3-0.2s0.1-0.2,0.1-0.4v-5.9c0-0.1,0-0.3-0.1-0.3s-0.1-0.2-0.3-0.2c-0.1-0.1-0.3-0.1-0.4-0.1s-0.3-0.1-0.4-0.1
			v-0.5h4.5v0.5c-0.1,0-0.3,0-0.4,0.1s-0.3,0.1-0.4,0.1c-0.2,0.1-0.3,0.1-0.3,0.2s-0.1,0.2-0.1,0.4v2.5h3.6v-2.4
			c0-0.1,0-0.3-0.1-0.3s-0.2-0.2-0.3-0.2c-0.1,0-0.2-0.1-0.4-0.1s-0.3-0.1-0.4-0.1v-0.5h4.5v0.5c-0.1,0-0.3,0-0.4,0
			s-0.3,0.1-0.4,0.1c-0.1,0.1-0.2,0.1-0.3,0.2s-0.1,0.2-0.1,0.4v5.9c0,0.1,0,0.3,0.1,0.4s0.2,0.2,0.3,0.2c0.1,0,0.2,0.1,0.4,0.1
			s0.3,0.1,0.4,0.1V-83.8z"/>
		<path d="M687.4-83.8h-4.6v-0.5c0.1,0,0.3,0,0.5,0s0.3,0,0.4-0.1c0.1-0.1,0.2-0.1,0.3-0.2s0.1-0.2,0.1-0.4v-5.9
			c0-0.1,0-0.2-0.1-0.4s-0.2-0.2-0.3-0.2c-0.1,0-0.2-0.1-0.4-0.1s-0.3-0.1-0.5-0.1v-0.5h4.6v0.5c-0.1,0-0.3,0-0.4,0
			s-0.3,0.1-0.4,0.1c-0.2,0.1-0.3,0.1-0.3,0.2s-0.1,0.2-0.1,0.4v5.9c0,0.1,0,0.3,0.1,0.4s0.2,0.2,0.3,0.2c0.1,0,0.2,0.1,0.4,0.1
			s0.3,0.1,0.5,0.1V-83.8z"/>
		<path d="M697.7-86.5l-0.2,2.7h-7.7v-0.5c0.1,0,0.3,0,0.5-0.1s0.3,0,0.4-0.1c0.1-0.1,0.2-0.1,0.3-0.2s0.1-0.2,0.1-0.4v-5.9
			c0-0.1,0-0.3-0.1-0.3s-0.1-0.2-0.3-0.2c-0.1-0.1-0.3-0.1-0.4-0.1s-0.3-0.1-0.4-0.1v-0.5h4.6v0.5c-0.1,0-0.3,0-0.4,0
			s-0.3,0.1-0.4,0.1c-0.2,0.1-0.3,0.1-0.3,0.2s-0.1,0.2-0.1,0.4v5.5c0,0.3,0,0.5,0.1,0.6s0.1,0.3,0.2,0.3c0.1,0.1,0.2,0.1,0.4,0.1
			s0.4,0,0.8,0c0.3,0,0.6,0,0.9-0.1s0.5-0.1,0.6-0.2c0.2-0.2,0.4-0.5,0.6-0.8s0.4-0.7,0.5-1H697.7z"/>
		<path d="M707.6-86.5l-0.2,2.7h-7.7v-0.5c0.1,0,0.3,0,0.5-0.1s0.3,0,0.4-0.1c0.1-0.1,0.2-0.1,0.3-0.2s0.1-0.2,0.1-0.4v-5.9
			c0-0.1,0-0.3-0.1-0.3s-0.1-0.2-0.3-0.2c-0.1-0.1-0.3-0.1-0.4-0.1s-0.3-0.1-0.4-0.1v-0.5h4.6v0.5c-0.1,0-0.3,0-0.4,0
			s-0.3,0.1-0.4,0.1c-0.2,0.1-0.3,0.1-0.3,0.2s-0.1,0.2-0.1,0.4v5.5c0,0.3,0,0.5,0.1,0.6s0.1,0.3,0.2,0.3c0.1,0.1,0.2,0.1,0.4,0.1
			s0.4,0,0.8,0c0.3,0,0.6,0,0.9-0.1s0.5-0.1,0.6-0.2c0.2-0.2,0.4-0.5,0.6-0.8s0.4-0.7,0.5-1H707.6z"/>
	</g>
	<line class="st0" x1="564.6" y1="-131.5" x2="564.6" y2="-76.7"/>
	<g>
		<path d="M529.8-116.9c0.1,0.1,0.1,0.1,0.1,0.1c6.4-0.3,10.1,2.2,10.5,3.2l2.6,0l0.8-1.7c0-0.1,0-0.4,0-0.4
			c-0.8-0.9-7.3-2.7-15.1-2.7c-8.4,0-13.7,1.6-14.8,2.5c0,0-0.3,0.2-0.3,0.4c0,0.1,0.2,0.4,0.2,0.4l0.2,0.5c0.1,0.1,0.2,0.1,0.3,0
			c0,0,0.2,0,0.2-0.1c0-0.1-0.1-0.3-0.1-0.3c-0.2-0.3,0.1-0.4,0.1-0.4l0.5-0.2c0.2-0.1,0.3,0.1,0.3,0.2c0,0,0.1,0.3,0.2,0.3
			c0.1,0.1,0.5-0.1,1.6-0.4c0.1,0,0.1,0,0.3-0.1c0.1,0,0-0.4,0-0.4c0-0.2-0.1-0.4,0.3-0.4l0.7-0.1c0.3-0.1,0.4,0.1,0.4,0.3
			c0,0,0,0.3,0.1,0.4c0.1,0.2,0.3-0.1,2.4-0.3c0,0,0.3,0,0.4-0.1c0.1-0.1,0-0.4,0-0.4c0-0.3-0.1-0.5,0.4-0.5l1-0.1
			c0.7-0.1,0.6,0.1,0.6,0.4c0,0,0,0.3,0.1,0.3c0.1,0.1,0.3,0,0.3,0c1.2-0.1,1.9-0.1,3.2-0.2c0,0,0.2,0,0.2-0.1c0.1-0.1,0-0.2,0-0.2
			c0-0.1,0-0.4,0.1-0.5c0.1-0.1,0.3-0.1,0.4-0.1l1.1,0c0.2,0,0.5-0.1,0.6,0c0.1,0.1,0,0.5,0,0.5S529.7-117,529.8-116.9z"/>
		<path d="M528.7-127.4c-6.3,0-10.2,2-12.7,4.5c0,0,0,0-0.1,0.1c0,0.1-0.1,0.3,0.2,0.2c5.4-2.3,11.3-0.8,13.2,1.3
			c0.1,0.1,0,0.1-0.1,0.1c-1.9,0-3.5-0.1-7,0.4c-1.9,0.3-3.6,0.5-5,0.9c-2.3,0.6-4,1.4-4.9,2c-0.3,0.2-0.4,0.3-0.5,0.5
			c-0.1,0.3-0.1,0.3-0.2,0.5c-0.1,0.4-0.2,0.6-0.2,0.8c0,0.2,0.2,0.2,0.4,0c0.3-0.3,1.1-1,2.2-1.5c1.2-0.5,3.1-1.2,5.2-1.5
			c2.8-0.5,6.2-0.8,9.2-0.8c3.6,0,6.8,0.4,9.5,0.9c2.7,0.5,4.9,1.3,6.3,2c0.7,0.3,1,0.6,1.5,1c0.3,0.4,0.4,0,0.4,0
			c0,0-0.1-0.5-0.6-1.5C543.6-121,538.8-127.4,528.7-127.4"/>
		<path class="st1" d="M510.4-85.2c0,1.5,6.1,4.5,18.7,4.5c12.2,0,18.7-3,18.7-4.5l-0.1-2.2c0,0,0-0.1,0-0.1c0-0.4-0.7-0.5-2.6-0.5
			l0-1.2c0,0.1-0.4,0.4-0.7,0.5c-1.6,0.9-7.8,2.3-15.4,2.3c-8.9,0-15.1-1.8-16.1-2.9l0,1.9c2.9,2.1,12,4,21.1,3c0.3,0,0.4-0.1,0.6,0
			c0.1,0,0.3,0.2-0.2,0.4c-5.3,1.7-18.3,1.4-23.9-2.8L510.4-85.2"/>
		<g>
			<path d="M536.4-114.2h0.1C536.5-114.2,536.5-114.2,536.4-114.2C536.4-114.2,536.4-114.2,536.4-114.2z"/>
			<path d="M536.3-113.8C536.3-113.8,536.3-113.8,536.3-113.8l0-0.4l0,0l0,0c0,0,0,0,0,0V-113.8z"/>
			<rect x="536.3" y="-114.1" width="0" height="0.4"/>
			<path d="M532.9-114.4C532.9-114.4,532.9-114.4,532.9-114.4L532.9-114.4C532.9-114.4,532.9-114.4,532.9-114.4z"/>
			<circle cx="536.3" cy="-113.7" r="0"/>
		</g>
		<path d="M536.5-115.1l-3.4,0c-0.2,0-0.2,0.1-0.2,0.3v0.4c0,0.2,0.1,0.3,0.3,0.3h1.1c0.1,0,0.1,0,0.1,0.1c0,0.1-0.2,0.2-0.2,0.2
			l-0.5,0.3c-0.1,0-0.1,0.1-0.1,0.3l0,24.7c0.1,0.4,0.7,0.5,1.5,0.5c0.6,0,1.4,0,1.5-0.5c0,0,0-23.5,0-25.5c0-0.1,0-0.1,0.1-0.1
			c0,0,0.1,0,0.1,0c0.2,0,0.2-0.1,0.2-0.2v-0.4C536.7-115.1,536.6-115.1,536.5-115.1z"/>
		<path class="st1" d="M530.8-98l0.1-0.2h0.2l0-0.2h-4.8l0,0.2h0.3l0.1,0.1l0.3,0.6c0,0,0,0.1,0.1,0.1c0.1,0,0.2,0,0.2,0
			c1.3,0,1,0,1.2,0c0.1,0,0.2,0,0.3,0.1c0,0.1,0.1,0.2-0.1,0.3c-0.4,0.3-1.1,0.7-1.4,0.9c0,0-0.1,0.1-0.2,0.2c0,0.1,0,0.2,0,0.2v4.6
			l-0.4,0.2c0,0-0.1,0.9,0,1c0.1,0.1,4,0.1,4.2,0c0.1-0.1,0-1,0-1l-0.4-0.1v-6.2L530.8-98z"/>
		<path d="M543.2-113.8l-3.4,0c-0.2,0-0.2,0.1-0.2,0.3v0.4c0,0.2,0.1,0.3,0.3,0.3h1.1c0.1,0,0.1,0,0.1,0.1c0,0.1-0.2,0.2-0.2,0.2
			l-0.5,0.3c-0.1,0-0.1,0.1-0.1,0.3l0,22.2c0.1,0.4,0.7,0.5,1.5,0.5c0.6,0,1.4,0,1.5-0.5c0,0,0-21.1,0-23.1c0-0.1,0-0.1,0.1-0.1
			c0,0,0.1,0,0.1,0c0.2,0,0.2-0.1,0.2-0.2v-0.4C543.4-113.7,543.3-113.8,543.2-113.8z"/>
		<path d="M524.3-115.1l-3.4,0c-0.2,0-0.2,0.1-0.2,0.3v0.4c0,0.2,0.1,0.3,0.3,0.3h1.1c0.1,0,0.1,0,0.1,0.1c0,0.1-0.2,0.2-0.2,0.2
			l-0.5,0.3c-0.1,0-0.1,0.1-0.1,0.3l0,24.7c0,0.4,0.7,0.5,1.5,0.5c0.6,0,1.4,0,1.5-0.5c0,0,0-23.5,0-25.5c0-0.1,0-0.1,0.1-0.1
			c0,0,0.1,0,0.1,0c0.2,0,0.2-0.1,0.2-0.2v-0.4C524.6-115.1,524.5-115.1,524.3-115.1z"/>
		<path d="M517.6-113.7l-3.4,0c-0.2,0-0.2,0.1-0.2,0.3v0.4c0,0.2,0.1,0.3,0.3,0.3l1.1,0c0.1,0,0.1,0,0.1,0.1c0,0.1-0.2,0.2-0.2,0.2
			l-0.5,0.3c-0.1,0-0.1,0.1-0.1,0.3l0,22.2c0,0.4,0.7,0.5,1.5,0.5c0.6,0,1.4,0,1.5-0.5c0,0,0-21,0-23.1c0-0.1,0-0.1,0.1-0.1
			c0,0,0.1,0,0.1,0c0.2,0,0.2-0.1,0.2-0.2v-0.4C517.9-113.6,517.8-113.7,517.6-113.7z"/>
	</g>
</g>
<line class="st0" x1="64" y1="0" x2="64" y2="54.8"/>
<g>
	<path d="M91.5,6.8h-0.6c-0.2-0.5-0.4-1-0.8-1.5c-0.4-0.5-0.7-0.8-1-0.9c-0.2,0-0.4,0-0.6-0.1s-0.5,0-0.6,0h-0.4V13
		c0,0.2,0,0.4,0.1,0.5c0.1,0.1,0.2,0.3,0.4,0.3c0.1,0,0.3,0.1,0.6,0.1c0.3,0,0.5,0.1,0.6,0.1v0.6h-6.2v-0.6c0.2,0,0.4,0,0.6-0.1
		c0.3,0,0.5-0.1,0.6-0.1c0.2-0.1,0.3-0.2,0.4-0.3c0.1-0.1,0.1-0.3,0.1-0.5V4.3h-0.4c-0.2,0-0.4,0-0.6,0c-0.2,0-0.4,0-0.6,0.1
		c-0.3,0-0.6,0.3-1,0.9c-0.4,0.5-0.6,1-0.8,1.5h-0.6V3.6h10.7V6.8z"/>
	<path d="M108,14.7h-6v-0.6c0.1,0,0.3,0,0.6,0c0.2,0,0.4-0.1,0.5-0.1c0.2-0.1,0.3-0.2,0.4-0.3c0.1-0.1,0.1-0.3,0.1-0.5V9.3h-4.7V13
		c0,0.2,0,0.3,0.1,0.5c0.1,0.1,0.2,0.2,0.4,0.3c0.1,0,0.3,0.1,0.5,0.1c0.2,0,0.4,0.1,0.6,0.1v0.6h-6v-0.6c0.1,0,0.3,0,0.6-0.1
		c0.3,0,0.4-0.1,0.6-0.1c0.2-0.1,0.3-0.2,0.4-0.3c0.1-0.1,0.1-0.3,0.1-0.5V5.3c0-0.2,0-0.3-0.1-0.5c-0.1-0.1-0.2-0.2-0.4-0.3
		c-0.2-0.1-0.3-0.1-0.6-0.2c-0.2-0.1-0.4-0.1-0.5-0.1V3.6h6v0.6c-0.2,0-0.4,0-0.6,0.1c-0.2,0-0.4,0.1-0.5,0.1
		C99.2,4.5,99,4.6,99,4.7c-0.1,0.1-0.1,0.3-0.1,0.5v3.3h4.7V5.3c0-0.2,0-0.3-0.1-0.5c-0.1-0.1-0.2-0.2-0.4-0.3
		c-0.1-0.1-0.3-0.1-0.5-0.2s-0.4-0.1-0.5-0.1V3.6h6v0.6c-0.2,0-0.4,0-0.6,0.1c-0.2,0-0.4,0.1-0.6,0.1c-0.2,0.1-0.3,0.2-0.4,0.3
		c-0.1,0.1-0.1,0.3-0.1,0.5V13c0,0.2,0,0.3,0.1,0.5c0.1,0.1,0.2,0.2,0.4,0.3c0.1,0.1,0.3,0.1,0.5,0.1c0.2,0,0.4,0.1,0.6,0.1V14.7z"
		/>
	<path d="M121.2,6.4h-0.6c-0.2-0.4-0.4-0.8-0.8-1.3c-0.4-0.4-0.7-0.7-1.1-0.8c-0.2,0-0.4-0.1-0.7-0.1c-0.3,0-0.5,0-0.7,0h-1.6v4.3
		h1.1c0.3,0,0.5,0,0.8-0.1c0.2-0.1,0.4-0.2,0.6-0.4c0.1-0.1,0.2-0.3,0.4-0.6c0.1-0.3,0.2-0.6,0.2-0.8h0.6v4.6h-0.6
		c0-0.2-0.1-0.5-0.2-0.8c-0.1-0.3-0.2-0.6-0.4-0.7c-0.2-0.2-0.4-0.3-0.6-0.4s-0.5-0.1-0.8-0.1h-1.1v3.2c0,0.3,0,0.6,0.1,0.8
		c0,0.2,0.1,0.3,0.3,0.4c0.1,0.1,0.3,0.2,0.5,0.2s0.5,0,0.9,0c0.2,0,0.4,0,0.7,0c0.3,0,0.5,0,0.7,0c0.2,0,0.4-0.1,0.6-0.1
		c0.2-0.1,0.3-0.1,0.4-0.2c0.2-0.3,0.5-0.6,0.8-1.2s0.5-0.9,0.6-1.2h0.6l-0.2,3.5h-10.4v-0.6c0.1,0,0.3,0,0.6-0.1s0.4-0.1,0.5-0.1
		c0.2-0.1,0.3-0.2,0.4-0.3c0.1-0.1,0.1-0.3,0.1-0.5V5.3c0-0.2,0-0.3-0.1-0.5c-0.1-0.1-0.2-0.2-0.4-0.3c-0.1-0.1-0.3-0.1-0.6-0.2
		c-0.2-0.1-0.4-0.1-0.6-0.1V3.6h9.8V6.4z"/>
	<path d="M143.6,4.2c-0.2,0-0.3,0-0.5,0.1s-0.3,0.1-0.5,0.2c-0.2,0.1-0.4,0.3-0.5,0.4c-0.1,0.1-0.2,0.4-0.4,0.6
		c-0.2,0.4-0.4,0.9-0.7,1.6c-0.3,0.7-0.6,1.5-1,2.4c-0.3,0.8-0.7,1.7-1.1,2.6c-0.4,0.9-0.8,1.8-1.1,2.7h-1.6
		c-0.7-1.8-1.5-3.6-2.2-5.4c-0.8-1.8-1.3-3.1-1.6-3.8c-0.1-0.3-0.2-0.5-0.3-0.6c-0.1-0.1-0.3-0.3-0.5-0.4c-0.2-0.1-0.3-0.2-0.5-0.2
		s-0.3-0.1-0.5-0.1V3.6h6v0.6c-0.6,0.1-0.9,0.1-1.1,0.2c-0.2,0.1-0.3,0.2-0.3,0.3c0,0.1,0,0.1,0,0.2c0,0.1,0,0.2,0.1,0.3
		c0.2,0.5,0.5,1.2,0.9,2.2c0.4,1,1.1,2.6,1.9,4.7c0.5-1.3,1-2.4,1.3-3.3c0.3-0.9,0.7-1.7,0.9-2.4c0.1-0.3,0.2-0.6,0.3-0.9
		s0.1-0.5,0.1-0.7c0-0.2-0.1-0.3-0.4-0.4c-0.2-0.1-0.7-0.2-1.3-0.2V3.6h4.5V4.2z"/>
	<path d="M152.2,14.7H146v-0.6c0.1,0,0.3,0,0.6,0c0.3,0,0.5-0.1,0.6-0.1c0.2-0.1,0.3-0.2,0.4-0.3c0.1-0.1,0.1-0.3,0.1-0.5V5.3
		c0-0.2,0-0.3-0.1-0.5c-0.1-0.1-0.2-0.2-0.4-0.3c-0.1-0.1-0.3-0.1-0.6-0.2c-0.2-0.1-0.5-0.1-0.6-0.1V3.6h6.1v0.6
		c-0.2,0-0.4,0-0.6,0.1c-0.2,0-0.4,0.1-0.6,0.1c-0.2,0.1-0.3,0.2-0.4,0.3c-0.1,0.1-0.1,0.3-0.1,0.5V13c0,0.2,0,0.3,0.1,0.5
		s0.2,0.2,0.4,0.3c0.1,0,0.3,0.1,0.5,0.1c0.3,0,0.5,0.1,0.6,0.1V14.7z"/>
	<path d="M160.2,15c-0.7,0-1.3-0.1-1.9-0.3s-1.1-0.4-1.5-0.6l-0.5,0.5h-0.7l-0.1-4h0.7c0.2,0.4,0.3,0.8,0.6,1.2s0.5,0.8,0.8,1.1
		c0.3,0.3,0.7,0.6,1.1,0.9c0.4,0.2,0.9,0.3,1.4,0.3c0.7,0,1.3-0.2,1.6-0.5c0.4-0.3,0.6-0.8,0.6-1.3c0-0.4-0.2-0.8-0.5-1.1
		s-0.8-0.5-1.5-0.8c-0.4-0.1-0.8-0.3-1.2-0.4s-0.7-0.2-1-0.4c-0.7-0.3-1.3-0.7-1.7-1.3c-0.4-0.6-0.5-1.2-0.5-1.9
		c0-0.4,0.1-0.8,0.3-1.2s0.5-0.8,0.8-1.1c0.3-0.3,0.8-0.5,1.3-0.7c0.5-0.2,1.1-0.3,1.8-0.3c0.6,0,1.2,0.1,1.7,0.3
		c0.5,0.2,1,0.3,1.3,0.5l0.5-0.5h0.7l0.1,3.8h-0.7c-0.2-0.4-0.3-0.8-0.6-1.2s-0.4-0.8-0.7-1.1c-0.3-0.3-0.5-0.5-0.9-0.7
		c-0.3-0.2-0.7-0.3-1.2-0.3c-0.6,0-1,0.2-1.4,0.5c-0.4,0.3-0.5,0.7-0.5,1.2c0,0.4,0.2,0.8,0.5,1.1c0.3,0.3,0.8,0.5,1.4,0.7
		c0.4,0.1,0.8,0.3,1.2,0.4c0.4,0.1,0.8,0.3,1.1,0.4c0.8,0.3,1.3,0.7,1.7,1.2c0.4,0.5,0.6,1.2,0.6,1.9c0,0.5-0.1,0.9-0.3,1.4
		c-0.2,0.4-0.5,0.8-0.9,1.1c-0.4,0.3-0.9,0.6-1.4,0.8S160.9,15,160.2,15z"/>
	<path d="M181,4.2c-0.2,0-0.4,0.1-0.7,0.1c-0.3,0.1-0.5,0.1-0.7,0.3c-0.2,0.1-0.3,0.4-0.4,0.7c-0.1,0.3-0.1,0.8-0.1,1.5v4.1
		c0,1.2-0.4,2.2-1.2,2.9c-0.8,0.7-1.9,1.1-3.3,1.1c-1.6,0-2.8-0.4-3.7-1.1c-0.9-0.7-1.3-1.7-1.3-3V5.3c0-0.2,0-0.3-0.1-0.5
		c-0.1-0.1-0.2-0.2-0.4-0.4c-0.1-0.1-0.3-0.1-0.5-0.2c-0.2,0-0.4-0.1-0.5-0.1V3.6h5.8v0.6c-0.2,0-0.3,0-0.5,0.1
		c-0.2,0-0.3,0.1-0.5,0.1c-0.2,0.1-0.3,0.2-0.4,0.3c-0.1,0.1-0.1,0.3-0.1,0.5v5.6c0,1.1,0.2,1.9,0.7,2.4c0.5,0.5,1.2,0.8,2.1,0.8
		c0.9,0,1.6-0.3,2.1-0.8c0.5-0.6,0.8-1.4,0.8-2.4V6.9c0-0.7,0-1.2-0.1-1.5c-0.1-0.3-0.2-0.6-0.4-0.7c-0.1-0.1-0.4-0.2-0.7-0.3
		s-0.6-0.2-0.7-0.2V3.6h4.8V4.2z"/>
	<path d="M195.9,14.7h-6v-0.6c0.3,0,0.6-0.1,1-0.2c0.4-0.1,0.6-0.2,0.6-0.3c0,0,0-0.1,0-0.1c0-0.1,0-0.1-0.1-0.2l-0.9-2.3h-3.8
		c-0.1,0.2-0.2,0.5-0.3,0.8c-0.1,0.3-0.2,0.5-0.3,0.8c-0.1,0.3-0.2,0.5-0.2,0.6c0,0.1,0,0.2,0,0.3c0,0.2,0.1,0.3,0.4,0.4
		s0.7,0.2,1.3,0.3v0.6h-4.5v-0.6c0.2,0,0.4,0,0.6-0.1c0.2,0,0.4-0.1,0.5-0.2c0.2-0.1,0.4-0.3,0.5-0.5c0.1-0.2,0.3-0.4,0.4-0.6
		c0.6-1.5,1.2-2.9,1.8-4.4c0.6-1.5,1.3-3.1,2-4.9h1.6c1,2.5,1.8,4.5,2.4,6c0.6,1.5,1.1,2.7,1.5,3.6c0.1,0.2,0.2,0.3,0.3,0.4
		c0.1,0.1,0.3,0.2,0.4,0.4c0.1,0.1,0.3,0.1,0.5,0.2c0.2,0,0.4,0.1,0.5,0.1V14.7z M190.1,10.2l-1.6-4l-1.6,4H190.1z"/>
	<path d="M208.7,11.1l-0.2,3.6h-10.2v-0.6c0.2,0,0.4,0,0.6-0.1c0.2,0,0.4-0.1,0.5-0.1c0.2-0.1,0.3-0.2,0.4-0.3
		c0.1-0.1,0.1-0.3,0.1-0.5V5.3c0-0.2,0-0.3-0.1-0.5c-0.1-0.1-0.2-0.2-0.4-0.3c-0.2-0.1-0.4-0.1-0.6-0.2c-0.2,0-0.4-0.1-0.5-0.1V3.6
		h6.1v0.6c-0.2,0-0.4,0-0.6,0.1c-0.2,0-0.4,0.1-0.6,0.1c-0.2,0.1-0.3,0.2-0.4,0.3c-0.1,0.1-0.1,0.3-0.1,0.5v7.3c0,0.3,0,0.6,0.1,0.8
		c0,0.2,0.1,0.3,0.3,0.4c0.1,0.1,0.3,0.2,0.6,0.2c0.2,0,0.6,0,1,0c0.4,0,0.8,0,1.2-0.1c0.4,0,0.7-0.2,0.8-0.3
		c0.3-0.3,0.5-0.6,0.8-1.1c0.3-0.5,0.5-0.9,0.7-1.3H208.7z"/>
	<path d="M230,14.7h-6v-0.6c0.3,0,0.6-0.1,1-0.2c0.4-0.1,0.6-0.2,0.6-0.3c0,0,0-0.1,0-0.1c0-0.1,0-0.1-0.1-0.2l-0.9-2.3h-3.8
		c-0.1,0.2-0.2,0.5-0.3,0.8c-0.1,0.3-0.2,0.5-0.3,0.8c-0.1,0.3-0.2,0.5-0.2,0.6c0,0.1,0,0.2,0,0.3c0,0.2,0.1,0.3,0.4,0.4
		s0.7,0.2,1.3,0.3v0.6H217v-0.6c0.2,0,0.4,0,0.6-0.1c0.2,0,0.4-0.1,0.5-0.2c0.2-0.1,0.4-0.3,0.5-0.5c0.1-0.2,0.3-0.4,0.4-0.6
		c0.6-1.5,1.2-2.9,1.8-4.4c0.6-1.5,1.3-3.1,2-4.9h1.6c1,2.5,1.8,4.5,2.4,6c0.6,1.5,1.1,2.7,1.5,3.6c0.1,0.2,0.2,0.3,0.3,0.4
		c0.1,0.1,0.3,0.2,0.4,0.4c0.1,0.1,0.3,0.1,0.5,0.2c0.2,0,0.4,0.1,0.5,0.1V14.7z M224.1,10.2l-1.6-4l-1.6,4H224.1z"/>
	<path d="M245.1,4.2c-0.1,0-0.4,0-0.6,0.1c-0.3,0-0.5,0.1-0.7,0.3c-0.2,0.1-0.3,0.4-0.4,0.7c-0.1,0.3-0.1,0.8-0.1,1.5v7.9h-1.4
		l-6.9-8.6v5.2c0,0.6,0,1.1,0.1,1.5s0.2,0.6,0.4,0.7c0.1,0.1,0.4,0.2,0.7,0.3c0.3,0.1,0.6,0.1,0.7,0.2v0.6h-4.8v-0.6
		c0.2,0,0.4-0.1,0.7-0.1c0.3-0.1,0.5-0.2,0.7-0.3c0.2-0.2,0.3-0.4,0.4-0.7s0.1-0.8,0.1-1.5V6.2c0-0.3,0-0.5-0.1-0.7
		c-0.1-0.2-0.2-0.4-0.4-0.6c-0.2-0.2-0.4-0.3-0.6-0.4s-0.5-0.2-0.8-0.2V3.6h4.2l6.1,7.5V6.9c0-0.7,0-1.2-0.1-1.5s-0.2-0.6-0.4-0.7
		c-0.2-0.1-0.4-0.2-0.7-0.3s-0.5-0.1-0.7-0.2V3.6h4.8V4.2z"/>
	<path d="M260.1,14.7h-6v-0.6c0.3,0,0.6-0.1,1-0.2c0.4-0.1,0.6-0.2,0.6-0.3c0,0,0-0.1,0-0.1c0-0.1,0-0.1-0.1-0.2l-0.9-2.3h-3.8
		c-0.1,0.2-0.2,0.5-0.3,0.8c-0.1,0.3-0.2,0.5-0.3,0.8c-0.1,0.3-0.2,0.5-0.2,0.6c0,0.1,0,0.2,0,0.3c0,0.2,0.1,0.3,0.4,0.4
		c0.3,0.1,0.7,0.2,1.3,0.3v0.6h-4.5v-0.6c0.2,0,0.4,0,0.6-0.1c0.2,0,0.4-0.1,0.5-0.2c0.2-0.1,0.4-0.3,0.5-0.5
		c0.1-0.2,0.3-0.4,0.4-0.6c0.6-1.5,1.2-2.9,1.8-4.4s1.3-3.1,2-4.9h1.6c1,2.5,1.8,4.5,2.4,6c0.6,1.5,1.1,2.7,1.5,3.6
		c0.1,0.2,0.2,0.3,0.3,0.4c0.1,0.1,0.3,0.2,0.4,0.4c0.1,0.1,0.3,0.1,0.5,0.2c0.2,0,0.4,0.1,0.5,0.1V14.7z M254.3,10.2l-1.6-4l-1.6,4
		H254.3z"/>
	<path d="M273,11.1l-0.2,3.6h-10.2v-0.6c0.2,0,0.4,0,0.6-0.1c0.2,0,0.4-0.1,0.5-0.1c0.2-0.1,0.3-0.2,0.4-0.3
		c0.1-0.1,0.1-0.3,0.1-0.5V5.3c0-0.2,0-0.3-0.1-0.5c-0.1-0.1-0.2-0.2-0.4-0.3c-0.2-0.1-0.4-0.1-0.6-0.2c-0.2,0-0.4-0.1-0.5-0.1V3.6
		h6.1v0.6c-0.2,0-0.4,0-0.6,0.1c-0.2,0-0.4,0.1-0.6,0.1c-0.2,0.1-0.3,0.2-0.4,0.3c-0.1,0.1-0.1,0.3-0.1,0.5v7.3c0,0.3,0,0.6,0.1,0.8
		c0,0.2,0.1,0.3,0.3,0.4c0.1,0.1,0.3,0.2,0.6,0.2c0.2,0,0.6,0,1,0c0.4,0,0.8,0,1.2-0.1c0.4,0,0.7-0.2,0.8-0.3
		c0.3-0.3,0.5-0.6,0.8-1.1c0.3-0.5,0.5-0.9,0.7-1.3H273z"/>
	<path d="M287.5,4.2c-0.2,0-0.4,0.1-0.5,0.1s-0.3,0.1-0.4,0.2c-0.2,0.1-0.4,0.3-0.6,0.5c-0.2,0.2-0.3,0.4-0.5,0.7
		c-0.3,0.5-0.7,1-1.1,1.6c-0.4,0.6-0.8,1.2-1.2,1.9c-0.3,0.4-0.5,0.8-0.5,1c-0.1,0.2-0.1,0.6-0.1,1.2V13c0,0.2,0,0.4,0.1,0.5
		s0.2,0.3,0.4,0.3c0.1,0,0.3,0.1,0.6,0.1c0.3,0.1,0.5,0.1,0.6,0.1v0.6h-6.2v-0.6c0.1,0,0.4,0,0.6-0.1s0.5-0.1,0.6-0.1
		c0.2-0.1,0.3-0.2,0.4-0.3c0.1-0.1,0.1-0.3,0.1-0.5v-2c0-0.2,0-0.3,0-0.5c0-0.1,0-0.2-0.1-0.3c0-0.1-0.1-0.2-0.2-0.4
		c-0.1-0.2-0.2-0.4-0.3-0.6c-0.4-0.7-0.8-1.4-1.2-2c-0.4-0.6-0.7-1.2-1.1-1.8c-0.2-0.3-0.4-0.5-0.5-0.7c-0.2-0.2-0.4-0.3-0.6-0.4
		c-0.1-0.1-0.3-0.1-0.5-0.2c-0.2,0-0.4-0.1-0.5-0.1V3.6h6.4v0.6c-0.6,0-1,0.1-1.2,0.1c-0.2,0.1-0.3,0.2-0.3,0.3c0,0.1,0,0.2,0.1,0.3
		c0.1,0.2,0.2,0.4,0.4,0.8c0.2,0.3,0.4,0.8,0.8,1.4c0.3,0.6,0.8,1.3,1.2,2.1c1-1.6,1.7-2.7,2-3.3c0.4-0.6,0.6-1,0.6-1.1
		c0-0.2-0.1-0.3-0.3-0.4s-0.6-0.2-1.1-0.2V3.6h4.1V4.2z"/>
	<path d="M294.5,15c-0.7,0-1.3-0.1-1.9-0.3s-1.1-0.4-1.5-0.6l-0.5,0.5h-0.7l-0.1-4h0.7c0.2,0.4,0.3,0.8,0.6,1.2s0.5,0.8,0.8,1.1
		c0.3,0.3,0.7,0.6,1.1,0.9c0.4,0.2,0.9,0.3,1.4,0.3c0.7,0,1.3-0.2,1.6-0.5s0.6-0.8,0.6-1.3c0-0.4-0.2-0.8-0.5-1.1s-0.8-0.5-1.5-0.8
		c-0.4-0.1-0.8-0.3-1.2-0.4s-0.7-0.2-1-0.4c-0.7-0.3-1.3-0.7-1.7-1.3s-0.5-1.2-0.5-1.9c0-0.4,0.1-0.8,0.3-1.2s0.5-0.8,0.8-1.1
		c0.3-0.3,0.8-0.5,1.3-0.7c0.5-0.2,1.1-0.3,1.8-0.3c0.6,0,1.2,0.1,1.7,0.3s1,0.3,1.3,0.5l0.5-0.5h0.7l0.1,3.8h-0.7
		c-0.2-0.4-0.3-0.8-0.6-1.2s-0.4-0.8-0.7-1.1c-0.3-0.3-0.5-0.5-0.9-0.7s-0.7-0.3-1.2-0.3c-0.6,0-1,0.2-1.4,0.5s-0.5,0.7-0.5,1.2
		c0,0.4,0.2,0.8,0.5,1.1s0.8,0.5,1.4,0.7c0.4,0.1,0.8,0.3,1.2,0.4s0.8,0.3,1.1,0.4c0.8,0.3,1.3,0.7,1.7,1.2s0.6,1.2,0.6,1.9
		c0,0.5-0.1,0.9-0.3,1.4c-0.2,0.4-0.5,0.8-0.9,1.1c-0.4,0.3-0.9,0.6-1.4,0.8S295.2,15,294.5,15z"/>
	<path d="M308.6,14.7h-6.1v-0.6c0.1,0,0.3,0,0.6,0c0.3,0,0.5-0.1,0.6-0.1c0.2-0.1,0.3-0.2,0.4-0.3c0.1-0.1,0.1-0.3,0.1-0.5V5.3
		c0-0.2,0-0.3-0.1-0.5c-0.1-0.1-0.2-0.2-0.4-0.3c-0.1-0.1-0.3-0.1-0.6-0.2s-0.5-0.1-0.6-0.1V3.6h6.1v0.6c-0.2,0-0.4,0-0.6,0.1
		c-0.2,0-0.4,0.1-0.6,0.1c-0.2,0.1-0.3,0.2-0.4,0.3c-0.1,0.1-0.1,0.3-0.1,0.5V13c0,0.2,0,0.3,0.1,0.5s0.2,0.2,0.4,0.3
		c0.1,0,0.3,0.1,0.5,0.1c0.3,0,0.5,0.1,0.6,0.1V14.7z"/>
	<path d="M316.6,15c-0.7,0-1.3-0.1-1.9-0.3s-1.1-0.4-1.5-0.6l-0.5,0.5H312l-0.1-4h0.7c0.2,0.4,0.3,0.8,0.6,1.2s0.5,0.8,0.8,1.1
		c0.3,0.3,0.7,0.6,1.1,0.9c0.4,0.2,0.9,0.3,1.4,0.3c0.7,0,1.3-0.2,1.6-0.5s0.6-0.8,0.6-1.3c0-0.4-0.2-0.8-0.5-1.1s-0.8-0.5-1.5-0.8
		c-0.4-0.1-0.8-0.3-1.2-0.4s-0.7-0.2-1-0.4c-0.7-0.3-1.3-0.7-1.7-1.3s-0.5-1.2-0.5-1.9c0-0.4,0.1-0.8,0.3-1.2s0.5-0.8,0.8-1.1
		c0.3-0.3,0.8-0.5,1.3-0.7c0.5-0.2,1.1-0.3,1.8-0.3c0.6,0,1.2,0.1,1.7,0.3s1,0.3,1.3,0.5l0.5-0.5h0.7l0.1,3.8h-0.7
		c-0.2-0.4-0.3-0.8-0.6-1.2s-0.4-0.8-0.7-1.1c-0.3-0.3-0.5-0.5-0.9-0.7s-0.7-0.3-1.2-0.3c-0.6,0-1,0.2-1.4,0.5s-0.5,0.7-0.5,1.2
		c0,0.4,0.2,0.8,0.5,1.1s0.8,0.5,1.4,0.7c0.4,0.1,0.8,0.3,1.2,0.4s0.8,0.3,1.1,0.4c0.8,0.3,1.3,0.7,1.7,1.2s0.6,1.2,0.6,1.9
		c0,0.5-0.1,0.9-0.3,1.4c-0.2,0.4-0.5,0.8-0.9,1.1c-0.4,0.3-0.9,0.6-1.4,0.8S317.3,15,316.6,15z"/>
	<path d="M86.1,30.6L86.1,30.6c-0.2,0.1-0.3,0.2-0.5,0.4s-0.3,0.3-0.6,0.4c-0.2,0.1-0.4,0.2-0.7,0.3c-0.2,0.1-0.5,0.1-0.8,0.1
		c-0.8,0-1.3-0.3-1.8-0.8s-0.6-1.3-0.6-2.2c0-0.6,0.1-1.3,0.4-1.9c0.2-0.6,0.6-1.2,1-1.6c0.4-0.5,0.9-0.8,1.4-1.1s1.1-0.4,1.7-0.4
		c0.4,0,0.7,0,1.1,0.1s0.6,0.2,0.8,0.3l1.4-0.4l0.1,0.1l-1.2,5c0,0.2-0.1,0.4-0.1,0.6c0,0.2-0.1,0.4-0.1,0.5c0,0.3,0.1,0.5,0.2,0.6
		c0.1,0.1,0.3,0.2,0.6,0.2c0.1,0,0.2,0,0.4,0s0.3-0.1,0.4-0.1l-0.1,0.5c-0.5,0.2-0.8,0.3-1,0.4s-0.5,0.1-0.8,0.1
		c-0.4,0-0.7-0.1-0.9-0.3C86.3,31.3,86.1,31,86.1,30.6z M87.2,25.7c0-0.2,0-0.3-0.1-0.5c0-0.2-0.1-0.3-0.2-0.4
		c-0.1-0.1-0.2-0.2-0.4-0.3c-0.2-0.1-0.4-0.1-0.7-0.1c-0.4,0-0.8,0.1-1.1,0.4c-0.4,0.3-0.7,0.6-1,1c-0.3,0.4-0.5,0.9-0.7,1.4
		c-0.2,0.6-0.3,1.1-0.3,1.7c0,0.3,0,0.6,0.1,0.8c0,0.2,0.1,0.5,0.2,0.7c0.1,0.2,0.2,0.4,0.4,0.5S84,31,84.2,31
		c0.3,0,0.6-0.1,0.9-0.2c0.3-0.2,0.7-0.5,1.1-0.9L87.2,25.7z"/>
	<path d="M101.1,30.8l-0.1,0.5c-0.5,0.2-0.8,0.3-1.1,0.4s-0.5,0.1-0.8,0.1c-0.4,0-0.7-0.1-0.9-0.3c-0.2-0.2-0.3-0.5-0.3-0.8
		c0-0.1,0-0.2,0-0.4c0-0.1,0.1-0.3,0.1-0.5l0.8-2.9c0.1-0.2,0.1-0.4,0.1-0.6c0-0.2,0.1-0.3,0.1-0.4c0-0.3-0.1-0.6-0.2-0.8
		s-0.4-0.3-0.7-0.3c-0.3,0-0.7,0.1-1.1,0.3c-0.4,0.2-0.8,0.5-1.1,0.9l-1.3,5.7H93l1.2-5.1c0-0.1,0.1-0.3,0.1-0.5
		c0-0.2,0.1-0.4,0.1-0.6c0-0.3,0-0.5-0.1-0.6c-0.1-0.1-0.3-0.1-0.6-0.1c-0.1,0-0.3,0-0.4,0.1c-0.2,0-0.3,0.1-0.4,0.1l0.1-0.5
		c0.4-0.2,0.8-0.3,1.1-0.4c0.3-0.1,0.6-0.1,0.8-0.1c0.4,0,0.7,0.1,0.9,0.3c0.2,0.2,0.3,0.5,0.3,0.9h0c0.6-0.5,1.1-0.8,1.5-1
		c0.4-0.2,0.9-0.3,1.4-0.3c0.5,0,0.9,0.1,1.2,0.4c0.3,0.3,0.4,0.7,0.4,1.1c0,0.1,0,0.3,0,0.5c0,0.2-0.1,0.5-0.1,0.7l-0.7,2.5
		c0,0.2-0.1,0.4-0.1,0.6c0,0.2-0.1,0.4-0.1,0.5c0,0.3,0.1,0.5,0.2,0.6c0.1,0.1,0.3,0.2,0.6,0.2c0.1,0,0.2,0,0.4-0.1
		S101,30.8,101.1,30.8z"/>
	<path d="M109.4,30.6L109.4,30.6c-0.2,0.1-0.3,0.2-0.5,0.4s-0.4,0.3-0.6,0.4c-0.2,0.2-0.5,0.3-0.7,0.4c-0.2,0.1-0.5,0.1-0.8,0.1
		c-0.8,0-1.3-0.3-1.8-0.8c-0.4-0.5-0.6-1.3-0.6-2.2c0-0.7,0.1-1.3,0.3-1.9s0.5-1.2,0.9-1.6c0.4-0.5,0.9-0.8,1.4-1.1s1.1-0.4,1.7-0.4
		c0.4,0,0.7,0,1.1,0.1s0.6,0.2,0.9,0.3l0.6-2.7c0-0.1,0.1-0.2,0.1-0.3c0-0.1,0-0.2,0-0.3c0-0.2,0-0.3-0.1-0.4
		c-0.1-0.1-0.2-0.2-0.3-0.2c-0.1,0-0.3-0.1-0.5-0.1s-0.4,0-0.6-0.1l0.1-0.5l3.2-0.2l0.1,0.1l-2.2,9.4c0,0.2-0.1,0.4-0.1,0.6
		S111,30,111,30.2c0,0.3,0.1,0.5,0.2,0.6s0.3,0.2,0.6,0.2c0.1,0,0.2,0,0.4,0c0.2,0,0.3-0.1,0.4-0.1l-0.1,0.5
		c-0.4,0.2-0.8,0.3-1.1,0.4c-0.3,0.1-0.6,0.1-0.8,0.1c-0.4,0-0.7-0.1-0.9-0.3C109.5,31.3,109.4,31,109.4,30.6z M110.5,25.6
		c0-0.2,0-0.3-0.1-0.4s-0.2-0.3-0.3-0.4c-0.1-0.1-0.3-0.2-0.5-0.3c-0.2-0.1-0.4-0.1-0.7-0.1c-0.4,0-0.8,0.1-1.1,0.4
		c-0.4,0.3-0.7,0.6-0.9,1c-0.3,0.4-0.5,0.9-0.6,1.5c-0.2,0.6-0.2,1.1-0.2,1.7c0,0.3,0,0.6,0.1,0.8c0,0.2,0.1,0.5,0.2,0.7
		c0.1,0.2,0.2,0.3,0.4,0.5c0.2,0.1,0.4,0.2,0.7,0.2c0.3,0,0.6-0.1,0.9-0.3c0.3-0.2,0.7-0.5,1.1-0.9L110.5,25.6z"/>
	<path d="M128.1,32c-0.8,0-1.6-0.1-2.3-0.4c-0.7-0.3-1.3-0.6-1.9-1.1c-0.5-0.5-0.9-1.1-1.2-1.8c-0.3-0.7-0.4-1.5-0.4-2.4
		c0-0.9,0.1-1.7,0.4-2.4c0.3-0.7,0.7-1.4,1.3-1.9c0.5-0.5,1.2-0.9,1.9-1.2c0.7-0.3,1.5-0.4,2.4-0.4c0.6,0,1.2,0.1,1.7,0.2
		c0.5,0.2,0.9,0.3,1.3,0.5l0.5-0.4h0.7l0.1,4h-0.7c-0.4-1.2-0.9-2.1-1.4-2.7c-0.5-0.6-1.2-0.9-2-0.9c-1,0-1.7,0.4-2.2,1.3
		s-0.8,2.1-0.8,3.6c0,0.9,0.1,1.6,0.3,2.3c0.2,0.6,0.4,1.1,0.7,1.5c0.3,0.4,0.7,0.7,1.1,0.9c0.4,0.2,0.9,0.3,1.4,0.3
		c0.7,0,1.4-0.2,1.9-0.6c0.6-0.4,1.1-1,1.6-1.8l0.7,0.4c-0.2,0.5-0.5,0.9-0.8,1.2c-0.3,0.4-0.6,0.7-1,0.9c-0.4,0.3-0.9,0.5-1.4,0.7
		C129.4,31.9,128.8,32,128.1,32z"/>
	<path d="M146.3,21.8c0.5,0.5,1,1.1,1.3,1.8s0.5,1.5,0.5,2.4c0,0.8-0.1,1.6-0.4,2.3c-0.3,0.7-0.7,1.4-1.2,1.9
		c-0.5,0.5-1.2,1-1.9,1.3c-0.7,0.3-1.6,0.5-2.6,0.5c-0.8,0-1.6-0.1-2.3-0.4s-1.4-0.7-1.9-1.2c-0.5-0.5-1-1.1-1.3-1.8
		c-0.3-0.7-0.5-1.5-0.5-2.4c0-0.9,0.2-1.7,0.5-2.5c0.3-0.7,0.7-1.4,1.3-1.9c0.5-0.5,1.2-0.9,1.9-1.2c0.7-0.3,1.5-0.4,2.4-0.4
		c0.8,0,1.6,0.1,2.3,0.4S145.8,21.3,146.3,21.8z M144.3,29.8c0.2-0.5,0.4-1,0.5-1.6c0.1-0.6,0.2-1.3,0.2-2c0-0.6,0-1.3-0.1-1.9
		c-0.1-0.6-0.2-1.1-0.5-1.6c-0.2-0.5-0.5-0.9-0.9-1.1c-0.4-0.3-0.8-0.4-1.4-0.4c-0.9,0-1.7,0.4-2.1,1.3c-0.5,0.9-0.7,2.2-0.7,3.8
		c0,0.7,0.1,1.3,0.2,2c0.1,0.6,0.3,1.2,0.5,1.6c0.2,0.5,0.5,0.8,0.9,1.1c0.4,0.3,0.8,0.4,1.3,0.4c0.5,0,1-0.1,1.3-0.4
		C143.8,30.6,144.1,30.2,144.3,29.8z"/>
	<path d="M166.7,31.7h-6v-0.6c0.2,0,0.4,0,0.7-0.1s0.4-0.1,0.5-0.1c0.2-0.1,0.3-0.2,0.4-0.3c0.1-0.1,0.1-0.3,0.1-0.5v-8.3l-3.8,9.7
		h-1c0-0.2-0.2-0.5-0.3-1c-0.2-0.5-0.3-0.9-0.4-1.2l-2.8-7.6v6.7c0,0.6,0,1.1,0.1,1.5s0.2,0.6,0.4,0.7c0.1,0.1,0.4,0.2,0.7,0.3
		s0.6,0.2,0.7,0.2v0.6h-4.8v-0.6c0.1,0,0.3-0.1,0.6-0.1c0.3-0.1,0.5-0.1,0.7-0.3c0.2-0.1,0.3-0.4,0.4-0.7c0.1-0.3,0.1-0.8,0.1-1.5
		V23c0-0.3,0-0.6-0.1-0.8c-0.1-0.2-0.2-0.4-0.4-0.5c-0.2-0.2-0.4-0.3-0.6-0.3s-0.4-0.1-0.7-0.1v-0.6h5.1l2.7,7.3l2.3-5.9
		c0.1-0.2,0.2-0.5,0.2-0.8c0.1-0.3,0.1-0.5,0.1-0.6h4.9v0.6c-0.2,0-0.3,0-0.5,0.1c-0.2,0-0.4,0.1-0.5,0.1c-0.2,0.1-0.3,0.2-0.4,0.3
		c-0.1,0.1-0.1,0.3-0.1,0.5V30c0,0.2,0,0.3,0.1,0.5c0.1,0.1,0.2,0.2,0.4,0.3c0.1,0,0.3,0.1,0.5,0.1c0.2,0,0.4,0.1,0.6,0.1V31.7z"/>
	<path d="M185.4,31.7h-6v-0.6c0.2,0,0.4,0,0.7-0.1s0.4-0.1,0.5-0.1c0.2-0.1,0.3-0.2,0.4-0.3c0.1-0.1,0.1-0.3,0.1-0.5v-8.3l-3.8,9.7
		h-1c0-0.2-0.2-0.5-0.3-1c-0.2-0.5-0.3-0.9-0.4-1.2l-2.8-7.6v6.7c0,0.6,0,1.1,0.1,1.5s0.2,0.6,0.4,0.7c0.1,0.1,0.4,0.2,0.7,0.3
		s0.6,0.2,0.7,0.2v0.6h-4.8v-0.6c0.1,0,0.3-0.1,0.6-0.1c0.3-0.1,0.5-0.1,0.7-0.3c0.2-0.1,0.3-0.4,0.4-0.7c0.1-0.3,0.1-0.8,0.1-1.5
		V23c0-0.3,0-0.6-0.1-0.8c-0.1-0.2-0.2-0.4-0.4-0.5c-0.2-0.2-0.4-0.3-0.6-0.3s-0.4-0.1-0.7-0.1v-0.6h5.1l2.7,7.3l2.3-5.9
		c0.1-0.2,0.2-0.5,0.2-0.8c0.1-0.3,0.1-0.5,0.1-0.6h4.9v0.6c-0.2,0-0.3,0-0.5,0.1c-0.2,0-0.4,0.1-0.5,0.1c-0.2,0.1-0.3,0.2-0.4,0.3
		c-0.1,0.1-0.1,0.3-0.1,0.5V30c0,0.2,0,0.3,0.1,0.5c0.1,0.1,0.2,0.2,0.4,0.3c0.1,0,0.3,0.1,0.5,0.1c0.2,0,0.4,0.1,0.6,0.1V31.7z"/>
	<path d="M201.6,21.2c-0.2,0-0.4,0.1-0.7,0.1c-0.3,0.1-0.5,0.1-0.7,0.3c-0.2,0.1-0.3,0.4-0.4,0.7c-0.1,0.3-0.1,0.8-0.1,1.5v4.1
		c0,1.2-0.4,2.2-1.2,2.9c-0.8,0.7-1.9,1.1-3.3,1.1c-1.6,0-2.8-0.4-3.7-1.1c-0.9-0.7-1.3-1.7-1.3-3v-5.7c0-0.2,0-0.3-0.1-0.5
		s-0.2-0.2-0.4-0.4c-0.1-0.1-0.3-0.1-0.5-0.2c-0.2,0-0.4-0.1-0.5-0.1v-0.6h5.8v0.6c-0.2,0-0.3,0-0.5,0.1s-0.3,0.1-0.5,0.1
		c-0.2,0.1-0.3,0.2-0.4,0.3c-0.1,0.1-0.1,0.3-0.1,0.5v5.6c0,1.1,0.2,1.9,0.7,2.4c0.5,0.5,1.2,0.8,2.1,0.8c0.9,0,1.6-0.3,2.1-0.8
		s0.8-1.4,0.8-2.4v-3.8c0-0.7,0-1.2-0.1-1.5c-0.1-0.3-0.2-0.6-0.4-0.7c-0.1-0.1-0.4-0.2-0.7-0.3s-0.6-0.2-0.7-0.2v-0.6h4.8V21.2z"/>
	<path d="M217.2,21.2c-0.1,0-0.4,0-0.6,0.1c-0.3,0-0.5,0.1-0.7,0.3c-0.2,0.1-0.3,0.4-0.4,0.7c-0.1,0.3-0.1,0.8-0.1,1.5v7.9h-1.4
		l-6.9-8.6v5.2c0,0.6,0,1.1,0.1,1.5s0.2,0.6,0.4,0.7c0.1,0.1,0.4,0.2,0.7,0.3c0.3,0.1,0.6,0.1,0.7,0.2v0.6h-4.8v-0.6
		c0.2,0,0.4-0.1,0.7-0.1c0.3-0.1,0.5-0.2,0.7-0.3c0.2-0.2,0.3-0.4,0.4-0.7c0.1-0.3,0.1-0.8,0.1-1.5v-5.2c0-0.3,0-0.5-0.1-0.7
		c-0.1-0.2-0.2-0.4-0.4-0.6c-0.2-0.2-0.4-0.3-0.6-0.4c-0.2-0.1-0.5-0.2-0.8-0.2v-0.6h4.2l6.1,7.5v-4.2c0-0.7,0-1.2-0.1-1.5
		c-0.1-0.3-0.2-0.6-0.4-0.7c-0.2-0.1-0.4-0.2-0.7-0.3s-0.5-0.1-0.7-0.2v-0.6h4.8V21.2z"/>
	<path d="M225.7,31.7h-6.1v-0.6c0.1,0,0.3,0,0.6,0s0.5-0.1,0.6-0.1c0.2-0.1,0.3-0.2,0.4-0.3s0.1-0.3,0.1-0.5v-7.9
		c0-0.2,0-0.3-0.1-0.5c-0.1-0.1-0.2-0.2-0.4-0.3c-0.1-0.1-0.3-0.1-0.6-0.2c-0.2-0.1-0.5-0.1-0.6-0.1v-0.6h6.1v0.6
		c-0.2,0-0.4,0-0.6,0.1s-0.4,0.1-0.6,0.1c-0.2,0.1-0.3,0.2-0.4,0.3c-0.1,0.1-0.1,0.3-0.1,0.5V30c0,0.2,0,0.3,0.1,0.5
		s0.2,0.2,0.4,0.3c0.1,0,0.3,0.1,0.5,0.1c0.3,0,0.5,0.1,0.6,0.1V31.7z"/>
	<path d="M232.9,32c-0.8,0-1.6-0.1-2.3-0.4c-0.7-0.3-1.3-0.6-1.9-1.1c-0.5-0.5-0.9-1.1-1.2-1.8c-0.3-0.7-0.4-1.5-0.4-2.4
		c0-0.9,0.1-1.7,0.4-2.4c0.3-0.7,0.7-1.4,1.3-1.9c0.5-0.5,1.2-0.9,1.9-1.2c0.7-0.3,1.5-0.4,2.4-0.4c0.6,0,1.2,0.1,1.7,0.2
		s0.9,0.3,1.3,0.5l0.5-0.4h0.7l0.1,4h-0.7c-0.4-1.2-0.9-2.1-1.4-2.7c-0.5-0.6-1.2-0.9-2-0.9c-1,0-1.7,0.4-2.2,1.3s-0.8,2.1-0.8,3.6
		c0,0.9,0.1,1.6,0.3,2.3c0.2,0.6,0.4,1.1,0.7,1.5c0.3,0.4,0.7,0.7,1.1,0.9c0.4,0.2,0.9,0.3,1.4,0.3c0.7,0,1.4-0.2,1.9-0.6
		c0.6-0.4,1.1-1,1.6-1.8l0.7,0.4c-0.2,0.5-0.5,0.9-0.8,1.2s-0.6,0.7-1,0.9c-0.4,0.3-0.9,0.5-1.4,0.7S233.6,32,232.9,32z"/>
	<path d="M252.9,31.7h-6v-0.6c0.3,0,0.6-0.1,1-0.2c0.4-0.1,0.6-0.2,0.6-0.3c0,0,0-0.1,0-0.1s0-0.1-0.1-0.2l-0.9-2.3h-3.8
		c-0.1,0.2-0.2,0.5-0.3,0.8s-0.2,0.5-0.3,0.8c-0.1,0.3-0.2,0.5-0.2,0.6c0,0.1,0,0.2,0,0.3c0,0.2,0.1,0.3,0.4,0.4
		c0.3,0.1,0.7,0.2,1.3,0.3v0.6h-4.5v-0.6c0.2,0,0.4,0,0.6-0.1s0.4-0.1,0.5-0.2c0.2-0.1,0.4-0.3,0.5-0.5s0.3-0.4,0.4-0.6
		c0.6-1.5,1.2-2.9,1.8-4.4s1.3-3.1,2-4.9h1.6c1,2.5,1.8,4.5,2.4,6s1.1,2.7,1.5,3.6c0.1,0.2,0.2,0.3,0.3,0.4s0.3,0.2,0.4,0.4
		c0.1,0.1,0.3,0.1,0.5,0.2s0.4,0.1,0.5,0.1V31.7z M247,27.2l-1.6-4l-1.6,4H247z"/>
	<path d="M265.6,23.8H265c-0.2-0.5-0.4-1-0.8-1.5c-0.4-0.5-0.7-0.8-1-0.9c-0.2,0-0.4,0-0.6-0.1s-0.5,0-0.6,0h-0.4V30
		c0,0.2,0,0.4,0.1,0.5s0.2,0.3,0.4,0.3c0.1,0,0.3,0.1,0.6,0.1s0.5,0.1,0.6,0.1v0.6h-6.2v-0.6c0.2,0,0.4,0,0.6-0.1s0.5-0.1,0.6-0.1
		c0.2-0.1,0.3-0.2,0.4-0.3s0.1-0.3,0.1-0.5v-8.8h-0.4c-0.2,0-0.4,0-0.6,0s-0.4,0-0.6,0.1c-0.3,0-0.6,0.3-1,0.9
		c-0.4,0.5-0.6,1-0.8,1.5h-0.6v-3.2h10.7V23.8z"/>
	<path d="M274.6,31.7h-6.1v-0.6c0.1,0,0.3,0,0.6,0s0.5-0.1,0.6-0.1c0.2-0.1,0.3-0.2,0.4-0.3s0.1-0.3,0.1-0.5v-7.9
		c0-0.2,0-0.3-0.1-0.5s-0.2-0.2-0.4-0.3c-0.1-0.1-0.3-0.1-0.6-0.2s-0.5-0.1-0.6-0.1v-0.6h6.1v0.6c-0.2,0-0.4,0-0.6,0.1
		s-0.4,0.1-0.6,0.1c-0.2,0.1-0.3,0.2-0.4,0.3s-0.1,0.3-0.1,0.5V30c0,0.2,0,0.3,0.1,0.5s0.2,0.2,0.4,0.3c0.1,0,0.3,0.1,0.5,0.1
		s0.5,0.1,0.6,0.1V31.7z"/>
	<path d="M288.2,21.8c0.5,0.5,1,1.1,1.3,1.8s0.5,1.5,0.5,2.4c0,0.8-0.1,1.6-0.4,2.3s-0.7,1.4-1.2,1.9c-0.5,0.5-1.2,1-1.9,1.3
		s-1.6,0.5-2.6,0.5c-0.8,0-1.6-0.1-2.3-0.4s-1.4-0.7-1.9-1.2c-0.5-0.5-1-1.1-1.3-1.8s-0.5-1.5-0.5-2.4c0-0.9,0.2-1.7,0.5-2.5
		s0.7-1.4,1.3-1.9c0.5-0.5,1.2-0.9,1.9-1.2s1.5-0.4,2.4-0.4c0.8,0,1.6,0.1,2.3,0.4S287.7,21.3,288.2,21.8z M286.2,29.8
		c0.2-0.5,0.4-1,0.5-1.6s0.2-1.3,0.2-2c0-0.6,0-1.3-0.1-1.9s-0.2-1.1-0.5-1.6c-0.2-0.5-0.5-0.9-0.9-1.1c-0.4-0.3-0.8-0.4-1.4-0.4
		c-0.9,0-1.7,0.4-2.1,1.3s-0.7,2.2-0.7,3.8c0,0.7,0.1,1.3,0.2,2s0.3,1.2,0.5,1.6c0.2,0.5,0.5,0.8,0.9,1.1c0.4,0.3,0.8,0.4,1.3,0.4
		c0.5,0,1-0.1,1.3-0.4S286,30.2,286.2,29.8z"/>
	<path d="M306.1,21.2c-0.1,0-0.4,0-0.6,0.1s-0.5,0.1-0.7,0.3c-0.2,0.1-0.3,0.4-0.4,0.7s-0.1,0.8-0.1,1.5v7.9h-1.4l-6.9-8.6v5.2
		c0,0.6,0,1.1,0.1,1.5s0.2,0.6,0.4,0.7c0.1,0.1,0.4,0.2,0.7,0.3s0.6,0.1,0.7,0.2v0.6h-4.8v-0.6c0.2,0,0.4-0.1,0.7-0.1
		s0.5-0.2,0.7-0.3c0.2-0.2,0.3-0.4,0.4-0.7s0.1-0.8,0.1-1.5v-5.2c0-0.3,0-0.5-0.1-0.7s-0.2-0.4-0.4-0.6c-0.2-0.2-0.4-0.3-0.6-0.4
		s-0.5-0.2-0.8-0.2v-0.6h4.2l6.1,7.5v-4.2c0-0.7,0-1.2-0.1-1.5c-0.1-0.3-0.2-0.6-0.4-0.7c-0.2-0.1-0.4-0.2-0.7-0.3s-0.5-0.1-0.7-0.2
		v-0.6h4.8V21.2z"/>
	<path d="M313.8,32c-0.7,0-1.3-0.1-1.9-0.3s-1.1-0.4-1.5-0.6l-0.5,0.5h-0.7l-0.1-4h0.7c0.2,0.4,0.3,0.8,0.6,1.2s0.5,0.8,0.8,1.1
		c0.3,0.3,0.7,0.6,1.1,0.9c0.4,0.2,0.9,0.3,1.4,0.3c0.7,0,1.3-0.2,1.6-0.5s0.6-0.8,0.6-1.3c0-0.4-0.2-0.8-0.5-1.1
		c-0.3-0.3-0.8-0.5-1.5-0.8c-0.4-0.1-0.8-0.3-1.2-0.4s-0.7-0.2-1-0.4c-0.7-0.3-1.3-0.7-1.7-1.3s-0.5-1.2-0.5-1.9
		c0-0.4,0.1-0.8,0.3-1.2c0.2-0.4,0.5-0.8,0.8-1.1c0.3-0.3,0.8-0.5,1.3-0.7s1.1-0.3,1.8-0.3c0.6,0,1.2,0.1,1.7,0.3s1,0.3,1.3,0.5
		l0.5-0.5h0.7l0.1,3.8h-0.7c-0.2-0.4-0.3-0.8-0.6-1.2s-0.4-0.8-0.7-1.1c-0.3-0.3-0.5-0.5-0.9-0.7c-0.3-0.2-0.7-0.3-1.2-0.3
		c-0.6,0-1,0.2-1.4,0.5s-0.5,0.7-0.5,1.2c0,0.4,0.2,0.8,0.5,1.1c0.3,0.3,0.8,0.5,1.4,0.7c0.4,0.1,0.8,0.3,1.2,0.4
		c0.4,0.1,0.8,0.3,1.1,0.4c0.8,0.3,1.3,0.7,1.7,1.2s0.6,1.2,0.6,1.9c0,0.5-0.1,0.9-0.3,1.4s-0.5,0.8-0.9,1.1
		c-0.4,0.3-0.9,0.6-1.4,0.8C315.1,31.9,314.5,32,313.8,32z"/>
	<path d="M91.6,45.1l-0.2,3.6H81.2v-0.6c0.2,0,0.4,0,0.6-0.1c0.2,0,0.4-0.1,0.5-0.1c0.2-0.1,0.3-0.2,0.4-0.3
		c0.1-0.1,0.1-0.3,0.1-0.5v-7.8c0-0.2,0-0.3-0.1-0.5c-0.1-0.1-0.2-0.2-0.4-0.3c-0.2-0.1-0.4-0.1-0.6-0.2s-0.4-0.1-0.5-0.1v-0.6h6.1
		v0.6c-0.2,0-0.4,0-0.6,0.1s-0.4,0.1-0.6,0.1c-0.2,0.1-0.3,0.2-0.4,0.3c-0.1,0.1-0.1,0.3-0.1,0.5v7.3c0,0.3,0,0.6,0.1,0.8
		s0.1,0.3,0.3,0.4c0.1,0.1,0.3,0.2,0.6,0.2s0.6,0,1,0c0.4,0,0.8,0,1.2-0.1c0.4,0,0.7-0.2,0.8-0.3c0.3-0.3,0.5-0.6,0.8-1.1
		c0.3-0.5,0.5-0.9,0.7-1.3H91.6z"/>
	<path d="M106.5,48.7h-6v-0.6c0.3,0,0.6-0.1,1-0.2s0.6-0.2,0.6-0.3c0,0,0-0.1,0-0.1s0-0.1-0.1-0.2L101,45h-3.8
		c-0.1,0.2-0.2,0.5-0.3,0.8c-0.1,0.3-0.2,0.5-0.3,0.8c-0.1,0.3-0.2,0.5-0.2,0.6s0,0.2,0,0.3c0,0.2,0.1,0.3,0.4,0.4s0.7,0.2,1.3,0.3
		v0.6h-4.5v-0.6c0.2,0,0.4,0,0.6-0.1s0.4-0.1,0.5-0.2c0.2-0.1,0.4-0.3,0.5-0.5s0.3-0.4,0.4-0.6c0.6-1.5,1.2-2.9,1.8-4.4
		c0.6-1.5,1.3-3.1,2-4.9h1.6c1,2.5,1.8,4.5,2.4,6s1.1,2.7,1.5,3.6c0.1,0.2,0.2,0.3,0.3,0.4c0.1,0.1,0.3,0.2,0.4,0.4
		c0.1,0.1,0.3,0.1,0.5,0.2c0.2,0,0.4,0.1,0.5,0.1V48.7z M100.7,44.2l-1.6-4l-1.6,4H100.7z"/>
	<path d="M118.7,43.6c0.3,0.2,0.6,0.5,0.8,0.9c0.2,0.3,0.3,0.8,0.3,1.2c0,0.6-0.1,1-0.4,1.4c-0.2,0.4-0.6,0.7-1,0.9
		c-0.5,0.2-1,0.4-1.6,0.5c-0.6,0.1-1.3,0.1-2.2,0.1h-5.8v-0.6c0.2,0,0.4,0,0.6-0.1c0.2,0,0.4-0.1,0.5-0.1c0.2-0.1,0.3-0.2,0.4-0.3
		s0.1-0.3,0.1-0.5v-7.8c0-0.2,0-0.3-0.1-0.5c-0.1-0.1-0.2-0.2-0.4-0.3c-0.2-0.1-0.3-0.1-0.6-0.2c-0.2,0-0.4-0.1-0.6-0.1v-0.6h6
		c1.5,0,2.6,0.2,3.3,0.6s1,1,1,1.8c0,0.4-0.1,0.7-0.2,1c-0.2,0.3-0.4,0.5-0.6,0.7c-0.3,0.2-0.6,0.4-0.9,0.5
		c-0.4,0.1-0.7,0.3-1.1,0.4v0.1c0.4,0,0.8,0.1,1.3,0.3S118.4,43.4,118.7,43.6z M116.2,40.3c0-0.6-0.2-1.1-0.5-1.4
		c-0.3-0.3-0.9-0.5-1.6-0.5c-0.1,0-0.2,0-0.4,0c-0.2,0-0.3,0-0.4,0v4.1h0.4c0.8,0,1.5-0.2,1.9-0.6C116,41.5,116.2,40.9,116.2,40.3z
		 M116.7,45.6c0-0.8-0.2-1.4-0.7-1.8c-0.5-0.4-1.1-0.6-2-0.6c-0.1,0-0.2,0-0.4,0s-0.3,0-0.4,0v4.1c0,0.2,0.2,0.4,0.4,0.5
		c0.2,0.1,0.5,0.2,0.9,0.2c0.6,0,1.1-0.2,1.5-0.6C116.6,46.9,116.7,46.3,116.7,45.6z"/>
	<path d="M133.6,38.8c0.5,0.5,1,1.1,1.3,1.8s0.5,1.5,0.5,2.4c0,0.8-0.1,1.6-0.4,2.3c-0.3,0.7-0.7,1.4-1.2,1.9
		c-0.5,0.5-1.2,1-1.9,1.3c-0.7,0.3-1.6,0.5-2.6,0.5c-0.8,0-1.6-0.1-2.3-0.4s-1.4-0.7-1.9-1.2c-0.5-0.5-1-1.1-1.3-1.8
		c-0.3-0.7-0.5-1.5-0.5-2.4c0-0.9,0.2-1.7,0.5-2.5c0.3-0.7,0.7-1.4,1.3-1.9c0.5-0.5,1.2-0.9,1.9-1.2c0.7-0.3,1.5-0.4,2.4-0.4
		c0.8,0,1.6,0.1,2.3,0.4S133.1,38.3,133.6,38.8z M131.6,46.8c0.2-0.5,0.4-1,0.5-1.6c0.1-0.6,0.2-1.3,0.2-2c0-0.6,0-1.3-0.1-1.9
		c-0.1-0.6-0.2-1.1-0.5-1.6c-0.2-0.5-0.5-0.9-0.9-1.1c-0.4-0.3-0.8-0.4-1.4-0.4c-0.9,0-1.7,0.4-2.1,1.3c-0.5,0.9-0.7,2.2-0.7,3.8
		c0,0.7,0.1,1.3,0.2,2c0.1,0.6,0.3,1.2,0.5,1.6c0.2,0.5,0.5,0.8,0.9,1.1c0.4,0.3,0.8,0.4,1.3,0.4c0.5,0,1-0.1,1.3-0.4
		C131.1,47.6,131.4,47.2,131.6,46.8z"/>
	<path d="M152.5,48.7h-4.3c-0.7-1.1-1.3-2-1.8-2.7c-0.5-0.7-1.1-1.4-1.8-2.3h-0.4V47c0,0.2,0,0.3,0.1,0.5s0.2,0.2,0.4,0.3
		c0.1,0,0.3,0.1,0.5,0.1s0.4,0.1,0.5,0.1v0.6h-5.9v-0.6c0.2,0,0.4,0,0.6-0.1c0.2,0,0.4-0.1,0.5-0.1c0.2-0.1,0.3-0.2,0.4-0.3
		c0.1-0.1,0.1-0.3,0.1-0.5v-7.8c0-0.2,0-0.3-0.1-0.5c-0.1-0.1-0.2-0.2-0.4-0.3c-0.2-0.1-0.4-0.1-0.6-0.2s-0.4-0.1-0.5-0.1v-0.6h6.2
		c1.4,0,2.4,0.2,3.2,0.7c0.7,0.4,1.1,1.1,1.1,2c0,0.8-0.2,1.4-0.7,1.9s-1.1,0.8-2,1.1c0.4,0.5,0.8,1,1.2,1.6c0.5,0.6,1,1.2,1.5,1.9
		c0.2,0.2,0.4,0.5,0.7,0.7c0.3,0.3,0.5,0.5,0.7,0.5c0.1,0,0.3,0.1,0.5,0.1c0.2,0,0.3,0,0.4,0V48.7z M147.1,40.4
		c0-0.7-0.2-1.3-0.6-1.6s-1-0.5-1.8-0.5h-0.6v4.6h0.6c0.8,0,1.4-0.2,1.8-0.6S147.1,41.3,147.1,40.4z"/>
	<path d="M166.8,48.7h-6v-0.6c0.3,0,0.6-0.1,1-0.2s0.6-0.2,0.6-0.3c0,0,0-0.1,0-0.1s0-0.1-0.1-0.2l-0.9-2.3h-3.8
		c-0.1,0.2-0.2,0.5-0.3,0.8c-0.1,0.3-0.2,0.5-0.3,0.8c-0.1,0.3-0.2,0.5-0.2,0.6s0,0.2,0,0.3c0,0.2,0.1,0.3,0.4,0.4s0.7,0.2,1.3,0.3
		v0.6h-4.5v-0.6c0.2,0,0.4,0,0.6-0.1s0.4-0.1,0.5-0.2c0.2-0.1,0.4-0.3,0.5-0.5s0.3-0.4,0.4-0.6c0.6-1.5,1.2-2.9,1.8-4.4
		c0.6-1.5,1.3-3.1,2-4.9h1.6c1,2.5,1.8,4.5,2.4,6s1.1,2.7,1.5,3.6c0.1,0.2,0.2,0.3,0.3,0.4c0.1,0.1,0.3,0.2,0.4,0.4
		c0.1,0.1,0.3,0.1,0.5,0.2c0.2,0,0.4,0.1,0.5,0.1V48.7z M161,44.2l-1.6-4l-1.6,4H161z"/>
	<path d="M179.5,40.8h-0.6c-0.2-0.5-0.4-1-0.8-1.5s-0.7-0.8-1-0.9c-0.2,0-0.4,0-0.6-0.1s-0.5,0-0.6,0h-0.4V47c0,0.2,0,0.4,0.1,0.5
		c0.1,0.1,0.2,0.3,0.4,0.3c0.1,0,0.3,0.1,0.6,0.1c0.3,0,0.5,0.1,0.6,0.1v0.6h-6.2v-0.6c0.2,0,0.4,0,0.6-0.1s0.5-0.1,0.6-0.1
		c0.2-0.1,0.3-0.2,0.4-0.3c0.1-0.1,0.1-0.3,0.1-0.5v-8.8h-0.4c-0.2,0-0.4,0-0.6,0c-0.2,0-0.4,0-0.6,0.1c-0.3,0-0.6,0.3-1,0.9
		s-0.6,1-0.8,1.5h-0.6v-3.2h10.7V40.8z"/>
	<path d="M192.7,38.8c0.5,0.5,1,1.1,1.3,1.8s0.5,1.5,0.5,2.4c0,0.8-0.1,1.6-0.4,2.3c-0.3,0.7-0.7,1.4-1.2,1.9
		c-0.5,0.5-1.2,1-1.9,1.3c-0.7,0.3-1.6,0.5-2.6,0.5c-0.8,0-1.6-0.1-2.3-0.4s-1.4-0.7-1.9-1.2c-0.5-0.5-1-1.1-1.3-1.8
		c-0.3-0.7-0.5-1.5-0.5-2.4c0-0.9,0.2-1.7,0.5-2.5c0.3-0.7,0.7-1.4,1.3-1.9c0.5-0.5,1.2-0.9,1.9-1.2c0.7-0.3,1.5-0.4,2.4-0.4
		c0.8,0,1.6,0.1,2.3,0.4S192.2,38.3,192.7,38.8z M190.7,46.8c0.2-0.5,0.4-1,0.5-1.6c0.1-0.6,0.2-1.3,0.2-2c0-0.6,0-1.3-0.1-1.9
		c-0.1-0.6-0.2-1.1-0.5-1.6c-0.2-0.5-0.5-0.9-0.9-1.1c-0.4-0.3-0.8-0.4-1.4-0.4c-0.9,0-1.7,0.4-2.1,1.3c-0.5,0.9-0.7,2.2-0.7,3.8
		c0,0.7,0.1,1.3,0.2,2c0.1,0.6,0.3,1.2,0.5,1.6c0.2,0.5,0.5,0.8,0.9,1.1c0.4,0.3,0.8,0.4,1.3,0.4c0.5,0,1-0.1,1.3-0.4
		C190.2,47.6,190.5,47.2,190.7,46.8z"/>
	<path d="M210.6,48.7h-4.3c-0.7-1.1-1.3-2-1.8-2.7c-0.5-0.7-1.1-1.4-1.8-2.3h-0.4V47c0,0.2,0,0.3,0.1,0.5s0.2,0.2,0.4,0.3
		c0.1,0,0.3,0.1,0.5,0.1s0.4,0.1,0.5,0.1v0.6h-5.9v-0.6c0.2,0,0.4,0,0.6-0.1c0.2,0,0.4-0.1,0.5-0.1c0.2-0.1,0.3-0.2,0.4-0.3
		c0.1-0.1,0.1-0.3,0.1-0.5v-7.8c0-0.2,0-0.3-0.1-0.5c-0.1-0.1-0.2-0.2-0.4-0.3c-0.2-0.1-0.4-0.1-0.6-0.2s-0.4-0.1-0.5-0.1v-0.6h6.2
		c1.4,0,2.4,0.2,3.2,0.7c0.7,0.4,1.1,1.1,1.1,2c0,0.8-0.2,1.4-0.7,1.9s-1.1,0.8-2,1.1c0.4,0.5,0.8,1,1.2,1.6c0.5,0.6,1,1.2,1.5,1.9
		c0.2,0.2,0.4,0.5,0.7,0.7c0.3,0.3,0.5,0.5,0.7,0.5c0.1,0,0.3,0.1,0.5,0.1c0.2,0,0.3,0,0.4,0V48.7z M205.3,40.4
		c0-0.7-0.2-1.3-0.6-1.6s-1-0.5-1.8-0.5h-0.6v4.6h0.6c0.8,0,1.4-0.2,1.8-0.6S205.3,41.3,205.3,40.4z"/>
	<path d="M224.7,38.2c-0.2,0-0.4,0.1-0.5,0.1c-0.2,0-0.3,0.1-0.4,0.2c-0.2,0.1-0.4,0.3-0.6,0.5s-0.3,0.4-0.5,0.7
		c-0.3,0.5-0.7,1-1.1,1.6s-0.8,1.2-1.2,1.9c-0.3,0.4-0.5,0.8-0.5,1c-0.1,0.2-0.1,0.6-0.1,1.2V47c0,0.2,0,0.4,0.1,0.5
		s0.2,0.3,0.4,0.3c0.1,0,0.3,0.1,0.6,0.1c0.3,0.1,0.5,0.1,0.6,0.1v0.6h-6.2v-0.6c0.1,0,0.4,0,0.6-0.1s0.5-0.1,0.6-0.1
		c0.2-0.1,0.3-0.2,0.4-0.3s0.1-0.3,0.1-0.5v-2c0-0.2,0-0.3,0-0.5c0-0.1,0-0.2-0.1-0.3c0-0.1-0.1-0.2-0.2-0.4
		c-0.1-0.2-0.2-0.4-0.3-0.6c-0.4-0.7-0.8-1.4-1.2-2s-0.7-1.2-1.1-1.8c-0.2-0.3-0.4-0.5-0.5-0.7s-0.4-0.3-0.6-0.4
		c-0.1-0.1-0.3-0.1-0.5-0.2s-0.4-0.1-0.5-0.1v-0.6h6.4v0.6c-0.6,0-1,0.1-1.2,0.1s-0.3,0.2-0.3,0.3c0,0.1,0,0.2,0.1,0.3
		c0.1,0.2,0.2,0.4,0.4,0.8c0.2,0.3,0.4,0.8,0.8,1.4s0.8,1.3,1.2,2.1c1-1.6,1.7-2.7,2-3.3s0.6-1,0.6-1.1c0-0.2-0.1-0.3-0.3-0.4
		s-0.6-0.2-1.1-0.2v-0.6h4.1V38.2z"/>
	<path d="M238.2,47.6L238.2,47.6c-0.2,0.1-0.3,0.2-0.5,0.4c-0.2,0.1-0.3,0.3-0.6,0.4c-0.2,0.1-0.4,0.2-0.7,0.3
		c-0.2,0.1-0.5,0.1-0.8,0.1c-0.8,0-1.3-0.3-1.8-0.8s-0.6-1.3-0.6-2.2c0-0.6,0.1-1.3,0.4-1.9c0.2-0.6,0.6-1.2,1-1.6
		c0.4-0.5,0.9-0.8,1.4-1.1s1.1-0.4,1.7-0.4c0.4,0,0.7,0,1.1,0.1s0.6,0.2,0.8,0.3l1.4-0.4l0.1,0.1l-1.2,5c0,0.2-0.1,0.4-0.1,0.6
		c0,0.2-0.1,0.4-0.1,0.5c0,0.3,0.1,0.5,0.2,0.6c0.1,0.1,0.3,0.2,0.6,0.2c0.1,0,0.2,0,0.4,0s0.3-0.1,0.4-0.1l-0.1,0.5
		c-0.5,0.2-0.8,0.3-1,0.4c-0.2,0.1-0.5,0.1-0.8,0.1c-0.4,0-0.7-0.1-0.9-0.3C238.4,48.3,238.3,48,238.2,47.6z M239.4,42.7
		c0-0.2,0-0.3-0.1-0.5s-0.1-0.3-0.2-0.4c-0.1-0.1-0.2-0.2-0.4-0.3c-0.2-0.1-0.4-0.1-0.7-0.1c-0.4,0-0.8,0.1-1.1,0.4
		c-0.4,0.3-0.7,0.6-1,1c-0.3,0.4-0.5,0.9-0.7,1.4c-0.2,0.6-0.3,1.1-0.3,1.7c0,0.3,0,0.6,0.1,0.8s0.1,0.5,0.2,0.7
		c0.1,0.2,0.2,0.4,0.4,0.5c0.2,0.1,0.4,0.2,0.7,0.2c0.3,0,0.6-0.1,0.9-0.2c0.3-0.2,0.7-0.5,1.1-0.9L239.4,42.7z"/>
	<path d="M246.6,48.8c-0.5,0-0.9-0.1-1.1-0.3s-0.3-0.5-0.3-0.9c0-0.1,0-0.2,0-0.3s0-0.2,0.1-0.4l1.2-5.2h-1.4l0.2-0.7h1.4l0.5-2.3
		h1.4l-0.5,2.3h2.2l-0.2,0.7H248l-1,4.3c0,0.2-0.1,0.4-0.1,0.6s0,0.3,0,0.5c0,0.3,0.1,0.5,0.2,0.6c0.1,0.1,0.4,0.2,0.8,0.2
		c0.1,0,0.3,0,0.6-0.1s0.4-0.1,0.6-0.1l-0.1,0.6c-0.4,0.1-0.7,0.3-1,0.4S247.1,48.8,246.6,48.8z"/>
	<path d="M271.8,38.2c-0.2,0-0.4,0.1-0.7,0.1s-0.5,0.1-0.7,0.3c-0.2,0.1-0.3,0.4-0.4,0.7s-0.1,0.8-0.1,1.5v4.1
		c0,1.2-0.4,2.2-1.2,2.9s-1.9,1.1-3.3,1.1c-1.6,0-2.8-0.4-3.7-1.1s-1.3-1.7-1.3-3v-5.7c0-0.2,0-0.3-0.1-0.5s-0.2-0.2-0.4-0.4
		c-0.1-0.1-0.3-0.1-0.5-0.2s-0.4-0.1-0.5-0.1v-0.6h5.8v0.6c-0.2,0-0.3,0-0.5,0.1s-0.3,0.1-0.5,0.1c-0.2,0.1-0.3,0.2-0.4,0.3
		s-0.1,0.3-0.1,0.5v5.6c0,1.1,0.2,1.9,0.7,2.4s1.2,0.8,2.1,0.8c0.9,0,1.6-0.3,2.1-0.8s0.8-1.4,0.8-2.4v-3.8c0-0.7,0-1.2-0.1-1.5
		s-0.2-0.6-0.4-0.7c-0.1-0.1-0.4-0.2-0.7-0.3s-0.6-0.2-0.7-0.2v-0.6h4.8V38.2z"/>
	<path d="M287.4,38.2c-0.1,0-0.4,0-0.6,0.1s-0.5,0.1-0.7,0.3c-0.2,0.1-0.3,0.4-0.4,0.7s-0.1,0.8-0.1,1.5v7.9h-1.4l-6.9-8.6v5.2
		c0,0.6,0,1.1,0.1,1.5s0.2,0.6,0.4,0.7c0.1,0.1,0.4,0.2,0.7,0.3s0.6,0.1,0.7,0.2v0.6h-4.8v-0.6c0.2,0,0.4-0.1,0.7-0.1
		s0.5-0.2,0.7-0.3c0.2-0.2,0.3-0.4,0.4-0.7s0.1-0.8,0.1-1.5v-5.2c0-0.3,0-0.5-0.1-0.7s-0.2-0.4-0.4-0.6c-0.2-0.2-0.4-0.3-0.6-0.4
		s-0.5-0.2-0.8-0.2v-0.6h4.2l6.1,7.5v-4.2c0-0.7,0-1.2-0.1-1.5c-0.1-0.3-0.2-0.6-0.4-0.7c-0.2-0.1-0.4-0.2-0.7-0.3s-0.5-0.1-0.7-0.2
		v-0.6h4.8V38.2z"/>
	<path d="M296.2,49c-0.8,0-1.6-0.1-2.3-0.4c-0.7-0.3-1.3-0.6-1.9-1.1c-0.5-0.5-0.9-1.1-1.2-1.8c-0.3-0.7-0.4-1.5-0.4-2.4
		c0-0.9,0.1-1.7,0.4-2.4c0.3-0.7,0.7-1.4,1.3-1.9c0.5-0.5,1.2-0.9,1.9-1.2c0.7-0.3,1.5-0.4,2.4-0.4c0.6,0,1.2,0.1,1.7,0.2
		s0.9,0.3,1.3,0.5l0.5-0.4h0.7l0.1,4h-0.7c-0.4-1.2-0.9-2.1-1.4-2.7c-0.5-0.6-1.2-0.9-2-0.9c-1,0-1.7,0.4-2.2,1.3s-0.8,2.1-0.8,3.6
		c0,0.9,0.1,1.6,0.3,2.3c0.2,0.6,0.4,1.1,0.7,1.5c0.3,0.4,0.7,0.7,1.1,0.9c0.4,0.2,0.9,0.3,1.4,0.3c0.7,0,1.4-0.2,1.9-0.6
		c0.6-0.4,1.1-1,1.6-1.8l0.7,0.4c-0.2,0.5-0.5,0.9-0.8,1.2s-0.6,0.7-1,0.9c-0.4,0.3-0.9,0.5-1.4,0.7S296.9,49,296.2,49z"/>
</g>
<g>
	<path class="st2" d="M30.9,34.2c0.5-0.9,3.8-4.3,3.4-5.2c-0.2-0.4-0.4-1.3-0.8-1.5C30,25.9,22.9,23,19.4,21.5
		c-0.5-0.2-2.2-1.3-2.6-1.6c-1.1-1-1.5-2.6-0.9-3.9c0.6-1.3,2.1-2.4,3.7-2.4c0.6,0,2.7,0.6,3.3,0.8c3.4,1.4,10.3,4.3,13.7,5.7
		c0.6,0.2,2.2,1.5,2.6,1.9c2,2,3.6,7.2,4.3,9.8c1.6,5.4,4.8,15.9,4.8,15.9"/>
	<path d="M46.9,48.1c0-0.1-3.3-10.6-4.8-15.9c-0.5-1.8-2.2-7.4-4-9.2c-0.3-0.3-1.8-1.4-2.2-1.6l-13.7-5.7C21.8,15.5,20,15,19.5,15
		c-0.8,0-1.8,0.7-2.2,1.5c-0.4,0.8-0.1,1.8,0.6,2.4c0.3,0.2,1.8,1.2,2.1,1.3l14.2,5.9c0.9,0.4,1.3,1.4,1.5,2.1
		c0,0.1,0.1,0.2,0.1,0.2c0.5,1.3-0.6,2.7-2.5,5c-0.4,0.5-0.9,1.1-1,1.3l-2.8-1.2c0.2-0.4,0.6-0.9,1.3-1.8c0.6-0.7,1.7-2.1,2-2.7
		c0,0,0-0.1,0-0.1c0-0.1-0.1-0.3-0.2-0.5l-13.9-5.8c-0.6-0.2-2.5-1.4-3-1.9c-1.6-1.4-2.1-3.6-1.3-5.4c0.9-1.9,3.1-3.3,5.2-3.2
		c0.9,0,3.3,0.8,3.8,1L37.2,19c0.8,0.3,2.7,1.8,3.1,2.2c2.1,2,3.5,6.4,4.7,10.4c1.5,5.3,4.8,15.8,4.8,15.9L46.9,48.1z"/>
</g>
<path d="M39.4,45.5c1.1-2.2,0.6-4.9-1.5-7.7c-2.2-2.9-5.7-5.4-10-7.1c-3.4-1.3-6.8-2.1-10.1-2.1c-4.8,0-8.5,1.6-9.8,4.3
	c-0.9,1.8-1,4.2-0.2,6.8C9.4,38,11.7,37,14.3,37c4.5,0,8.2,3.3,8.2,7.4c0,1.9-0.8,3.6-2.1,4.9c2.1,0.3,4.3,0.4,6.4,0.4
	C30.7,49.7,37.6,49.1,39.4,45.5z"/>
<g>
	<path d="M52.4,47.8c0,0.3-0.4,0.6-0.9,0.6h-6.7c-0.5,0-0.9-0.3-0.9-0.6v0c0-0.3,0.4-0.6,0.9-0.6h6.7C51.9,47.2,52.4,47.4,52.4,47.8
		L52.4,47.8z"/>
	<path d="M51.4,49.7h-6.7c-1.4,0-2.4-0.9-2.4-1.9v0c0-1.1,1.1-1.9,2.4-1.9h6.7c1.4,0,2.4,0.9,2.4,1.9v0
		C53.9,48.9,52.8,49.7,51.4,49.7z"/>
</g>
<g>
	<ellipse cx="14.3" cy="44.4" rx="6.4" ry="5.8"/>
</g>
<g>
	<path d="M13.8,4.6c-0.1,0-0.2,0-0.2,0c-0.1,0-0.2,0.1-0.2,0.1c-0.1,0.1-0.2,0.1-0.2,0.2c-0.1,0.1-0.1,0.2-0.2,0.3
		c-0.1,0.2-0.2,0.4-0.3,0.8c-0.1,0.3-0.3,0.7-0.5,1.1c-0.2,0.4-0.3,0.8-0.5,1.2S11.2,9.3,11,9.7h-0.7C9.9,8.8,9.6,8,9.2,7.1
		C8.9,6.2,8.6,5.6,8.5,5.3C8.4,5.1,8.3,5,8.3,5C8.2,4.9,8.2,4.8,8,4.8C8,4.7,7.9,4.7,7.8,4.7s-0.2,0-0.3-0.1V4.3h2.9v0.3
		c-0.3,0-0.5,0.1-0.5,0.1c-0.1,0-0.1,0.1-0.1,0.1c0,0,0,0.1,0,0.1c0,0,0,0.1,0,0.1c0.1,0.2,0.2,0.6,0.4,1.1c0.2,0.5,0.5,1.3,0.9,2.3
		c0.3-0.6,0.5-1.1,0.6-1.6s0.3-0.8,0.4-1.1c0.1-0.2,0.1-0.3,0.2-0.4c0-0.1,0.1-0.2,0.1-0.3c0-0.1-0.1-0.1-0.2-0.2
		c-0.1-0.1-0.3-0.1-0.6-0.1V4.3h2.1V4.6z"/>
	<path d="M21.9,9.6H19V9.3c0.1,0,0.3,0,0.5-0.1c0.2,0,0.3-0.1,0.3-0.1c0,0,0,0,0-0.1c0,0,0-0.1,0-0.1l-0.5-1.1h-1.8
		c0,0.1-0.1,0.2-0.1,0.4s-0.1,0.3-0.1,0.4c0,0.1-0.1,0.2-0.1,0.3c0,0.1,0,0.1,0,0.1c0,0.1,0.1,0.1,0.2,0.2c0.1,0.1,0.3,0.1,0.6,0.1
		v0.3h-2.2V9.3c0.1,0,0.2,0,0.3,0c0.1,0,0.2-0.1,0.2-0.1c0.1-0.1,0.2-0.1,0.3-0.2c0.1-0.1,0.1-0.2,0.2-0.3c0.3-0.7,0.6-1.4,0.9-2.1
		s0.6-1.5,1-2.3h0.7c0.5,1.2,0.9,2.1,1.1,2.8c0.3,0.7,0.5,1.3,0.7,1.7c0,0.1,0.1,0.1,0.1,0.2s0.1,0.1,0.2,0.2c0.1,0,0.2,0.1,0.2,0.1
		c0.1,0,0.2,0,0.2,0V9.6z M19.1,7.5l-0.8-1.9l-0.8,1.9H19.1z"/>
	<path d="M27,9.8c-0.4,0-0.8-0.1-1.1-0.2C25.6,9.5,25.3,9.3,25,9c-0.2-0.2-0.4-0.5-0.6-0.9c-0.1-0.3-0.2-0.7-0.2-1.1
		c0-0.4,0.1-0.8,0.2-1.1S24.8,5.2,25,5c0.3-0.3,0.6-0.4,0.9-0.6s0.7-0.2,1.1-0.2c0.3,0,0.6,0,0.8,0.1c0.2,0.1,0.4,0.2,0.6,0.2
		l0.2-0.2h0.3l0,1.9h-0.3c-0.2-0.6-0.4-1-0.7-1.3c-0.3-0.3-0.6-0.4-1-0.4c-0.5,0-0.8,0.2-1.1,0.6c-0.2,0.4-0.4,1-0.4,1.7
		c0,0.4,0,0.8,0.1,1.1s0.2,0.5,0.3,0.7c0.1,0.2,0.3,0.3,0.5,0.4s0.4,0.1,0.7,0.1c0.3,0,0.7-0.1,0.9-0.3s0.5-0.5,0.7-0.9l0.3,0.2
		c-0.1,0.2-0.2,0.4-0.4,0.6c-0.1,0.2-0.3,0.3-0.5,0.4c-0.2,0.1-0.4,0.2-0.7,0.3S27.3,9.8,27,9.8z"/>
	<path d="M36.9,7.9l-0.1,1.7H32V9.3c0.1,0,0.2,0,0.3,0c0.1,0,0.2,0,0.2,0c0.1,0,0.2-0.1,0.2-0.1c0-0.1,0.1-0.1,0.1-0.2V5.1
		c0-0.1,0-0.2,0-0.2c0-0.1-0.1-0.1-0.2-0.2c-0.1,0-0.2-0.1-0.3-0.1c-0.1,0-0.2,0-0.3,0V4.3h2.9v0.3c-0.1,0-0.2,0-0.3,0
		c-0.1,0-0.2,0-0.3,0.1c-0.1,0-0.2,0.1-0.2,0.2s0,0.1,0,0.2v3.5c0,0.2,0,0.3,0,0.4c0,0.1,0.1,0.2,0.1,0.2c0.1,0,0.2,0.1,0.3,0.1
		s0.3,0,0.5,0c0.2,0,0.4,0,0.6,0c0.2,0,0.3-0.1,0.4-0.2c0.1-0.1,0.3-0.3,0.4-0.5c0.1-0.2,0.2-0.4,0.3-0.6H36.9z"/>
	<path d="M45.2,9.6h-2.9V9.3c0.1,0,0.3,0,0.5-0.1c0.2,0,0.3-0.1,0.3-0.1c0,0,0,0,0-0.1c0,0,0-0.1,0-0.1l-0.5-1.1h-1.8
		c0,0.1-0.1,0.2-0.1,0.4s-0.1,0.3-0.1,0.4c0,0.1-0.1,0.2-0.1,0.3c0,0.1,0,0.1,0,0.1c0,0.1,0.1,0.1,0.2,0.2c0.1,0.1,0.3,0.1,0.6,0.1
		v0.3H39V9.3c0.1,0,0.2,0,0.3,0c0.1,0,0.2-0.1,0.2-0.1c0.1-0.1,0.2-0.1,0.3-0.2c0.1-0.1,0.1-0.2,0.2-0.3c0.3-0.7,0.6-1.4,0.9-2.1
		s0.6-1.5,1-2.3h0.7c0.5,1.2,0.9,2.1,1.1,2.8c0.3,0.7,0.5,1.3,0.7,1.7c0,0.1,0.1,0.1,0.1,0.2s0.1,0.1,0.2,0.2c0.1,0,0.2,0.1,0.2,0.1
		c0.1,0,0.2,0,0.2,0V9.6z M42.4,7.5l-0.8-1.9l-0.8,1.9H42.4z"/>
	<path d="M52.2,7.2c0.2,0.1,0.3,0.2,0.4,0.4c0.1,0.2,0.1,0.4,0.1,0.6c0,0.3-0.1,0.5-0.2,0.7s-0.3,0.3-0.5,0.4
		c-0.2,0.1-0.5,0.2-0.8,0.2s-0.6,0.1-1,0.1h-2.7V9.3c0.1,0,0.2,0,0.3,0c0.1,0,0.2,0,0.2-0.1c0.1,0,0.2-0.1,0.2-0.1
		c0-0.1,0.1-0.1,0.1-0.2V5.1c0-0.1,0-0.2,0-0.2c0-0.1-0.1-0.1-0.2-0.2c-0.1,0-0.2-0.1-0.3-0.1c-0.1,0-0.2,0-0.3-0.1V4.3h2.9
		c0.7,0,1.2,0.1,1.6,0.3c0.3,0.2,0.5,0.5,0.5,0.9c0,0.2,0,0.3-0.1,0.5c-0.1,0.1-0.2,0.3-0.3,0.4c-0.1,0.1-0.3,0.2-0.4,0.2
		c-0.2,0.1-0.4,0.1-0.5,0.2v0.1c0.2,0,0.4,0.1,0.6,0.1C51.9,7,52.1,7.1,52.2,7.2z M51,5.6c0-0.3-0.1-0.5-0.2-0.7
		c-0.2-0.2-0.4-0.2-0.7-0.2c0,0-0.1,0-0.2,0c-0.1,0-0.1,0-0.2,0v2h0.2c0.4,0,0.7-0.1,0.9-0.3C50.9,6.2,51,5.9,51,5.6z M51.3,8.2
		c0-0.4-0.1-0.7-0.3-0.8C50.7,7.1,50.4,7,50,7c0,0-0.1,0-0.2,0c-0.1,0-0.1,0-0.2,0V9c0,0.1,0.1,0.2,0.2,0.2s0.3,0.1,0.4,0.1
		c0.3,0,0.5-0.1,0.7-0.3C51.2,8.8,51.3,8.5,51.3,8.2z"/>
</g>
<g>
</g>
<g>
</g>
<g>
</g>
<g>
</g>
<g>
</g>
<g>
</g>
</svg>
